<?xml version="1.0"?>
<svg width="47" height="47" xmlns="http://www.w3.org/2000/svg" xmlns:svg="http://www.w3.org/2000/svg">
 <defs>
  <clipPath id="clip0_512_2">
   <rect fill="white" height="47" id="svg_1" width="47"/>
  </clipPath>
 </defs>
 <g class="layer">
  <title>Layer 1</title>
  <g clip-path="url(#clip0_512_2)" id="svg_2" opacity="0.5">
   <path d="m20.84,0.83c-7.69,0.94 -14.45,5.72 -17.8,12.61c-1.04,2.13 -1.63,3.92 -2.04,6.25c-0.25,1.38 -0.35,4.75 -0.18,6.21c0.34,2.99 1.27,5.95 2.67,8.47l0.55,0.99l-1.69,5.1c-1.45,4.4 -1.67,5.14 -1.6,5.36c0.1,0.3 0.32,0.44 0.65,0.44c0.11,0 2.46,-0.72 5.24,-1.61l5.02,-1.63l0.44,0.25c1.89,1.09 4.64,2.13 6.81,2.57c2.01,0.41 5.12,0.55 7.11,0.33c10.63,-1.18 19.05,-9.64 20.16,-20.27c0.16,-1.56 0.07,-4.81 -0.19,-6.25c-0.72,-4.05 -2.43,-7.74 -5.08,-10.88c-2.92,-3.47 -7.09,-6.14 -11.46,-7.29c-2.05,-0.55 -3.02,-0.67 -5.58,-0.71c-1.29,-0.01 -2.66,0.02 -3.03,0.06zm4.33,1.51c1.2,0.06 2.76,0.35 4.11,0.73c5.24,1.51 9.69,4.97 12.5,9.7c1.07,1.81 1.8,3.59 2.33,5.72c0.75,3 0.81,6.55 0.15,9.6c-1.8,8.22 -8.47,14.74 -16.72,16.34c-1.96,0.38 -4.67,0.48 -6.58,0.23c-2.89,-0.38 -5.78,-1.35 -8.14,-2.74c-0.51,-0.3 -0.99,-0.52 -1.13,-0.52c-0.14,0 -2.2,0.64 -4.58,1.42c-2.36,0.77 -4.32,1.41 -4.33,1.39c-0.03,-0.03 2.65,-8.31 2.83,-8.74c0.11,-0.27 0.08,-0.34 -0.52,-1.41c-1.23,-2.2 -2.01,-4.36 -2.49,-6.79c-0.23,-1.15 -0.25,-1.42 -0.25,-3.72c-0.01,-2.2 0.02,-2.61 0.2,-3.6c0.67,-3.66 2.2,-7.02 4.45,-9.81c0.72,-0.89 2.35,-2.51 3.24,-3.22c2.77,-2.21 6.2,-3.75 9.73,-4.36c1.14,-0.2 3.06,-0.35 3.85,-0.3c0.26,0.02 0.86,0.05 1.35,0.08z" fill="#000000" id="svg_3"/>
   <path d="m14.22,12.32c-1.16,0.3 -2.88,2.56 -3.34,4.37c-0.49,1.93 -0.1,4.17 1.15,6.62c2.1,4.11 5.37,7.27 9.68,9.33c3,1.44 5.18,2.04 7.73,2.12c1.41,0.06 1.51,0.05 2.25,-0.18c1.06,-0.34 1.83,-0.81 2.74,-1.72c0.87,-0.85 1.55,-1.89 1.79,-2.74c0.15,-0.48 0.14,-0.54 -0.05,-1.47c-0.12,-0.53 -0.29,-1.12 -0.38,-1.3c-0.22,-0.45 -0.69,-0.89 -1.13,-1.04c-0.41,-0.16 -5.59,-0.97 -6.11,-0.97c-0.45,0 -1.22,0.38 -1.51,0.74c-0.13,0.17 -0.47,0.66 -0.77,1.09c-0.39,0.6 -0.58,0.79 -0.76,0.81c-0.47,0.05 -2.24,-0.83 -3.66,-1.83c-0.87,-0.6 -2.6,-2.33 -3.1,-3.09c-0.47,-0.72 -0.46,-0.77 0.5,-1.85c0.89,-0.99 1.07,-1.39 1.02,-2.2c-0.04,-0.51 -0.21,-1 -1.11,-3.17c-0.58,-1.4 -1.14,-2.67 -1.24,-2.8c-0.23,-0.31 -0.7,-0.62 -1.11,-0.74c-0.41,-0.11 -2.14,-0.1 -2.59,0.02zm2.38,1.61c0.13,0.14 1.3,2.87 2.04,4.81c0.21,0.53 0.16,0.64 -0.76,1.65c-0.77,0.85 -0.98,1.21 -1.05,1.82c-0.07,0.56 0.08,1.01 0.57,1.7c1.46,2.06 3.55,3.81 6.01,5.04c1.23,0.62 1.83,0.76 2.45,0.62c0.71,-0.18 1.07,-0.49 1.69,-1.41c0.78,-1.16 0.87,-1.26 1.27,-1.26c0.18,0 1.45,0.18 2.84,0.39c2.16,0.34 2.53,0.42 2.67,0.59c0.08,0.11 0.2,0.53 0.27,0.97l0.12,0.79l-0.31,0.58c-0.46,0.88 -1.68,2.07 -2.56,2.49c-0.85,0.4 -1.43,0.52 -2.47,0.52c-1.9,0 -4.2,-0.65 -6.94,-1.96c-3.15,-1.52 -5.64,-3.59 -7.63,-6.38c-1.93,-2.68 -2.86,-5.48 -2.46,-7.4c0.26,-1.29 1.03,-2.56 2.03,-3.38c0.42,-0.34 0.43,-0.34 1.23,-0.34c0.67,0 0.85,0.03 0.99,0.16z" fill="#000000" id="svg_4"/>
  </g>
 </g>
</svg>