<svg width="848" height="731" xmlns="http://www.w3.org/2000/svg" fill="none">
 <defs>
  <filter id="svg_10_blur">
   <feGaussianBlur stdDeviation="0.4" in="SourceGraphic"/>
  </filter>
 </defs>
 <g>
  <title>Layer 1</title>
  <path stroke="null" id="svg_16" fill="#707968" d="m661.02517,184.71949l-0.94229,-5.81304c1.01209,-0.95184 2.40807,-1.75071 4.18795,-2.39661c1.77988,-0.6119 3.50741,-0.91785 5.18259,-0.91785c3.48996,0 6.26447,0.90085 8.32355,2.70255c2.09397,1.8017 3.14096,4.2663 3.14096,7.39378c0,3.73938 -2.07652,8.09067 -6.22957,13.05385c-1.39598,1.69972 -3.17586,3.6204 -5.33963,5.76205l-1.30873,1.27479c-0.2792,0.30595 -0.68054,0.71388 -1.20404,1.2238c-1.04699,0.98584 -1.77988,1.69972 -2.19867,2.14165l12.04035,0c1.50068,0 2.68727,-0.32295 3.55976,-0.96884c0.76779,-0.5779 1.62283,-1.69972 2.56512,-3.36545l0.52349,0l-2.51277,7.18982l-21.46323,0l0,-0.50992c1.74498,-1.56374 3.52486,-3.29746 5.33963,-5.20114c2.16377,-2.27762 4.08325,-4.52126 5.75843,-6.73089c4.36245,-5.64307 6.54367,-10.19832 6.54367,-13.66575c0,-2.75355 -0.68054,-4.91219 -2.04162,-6.47593c-1.32618,-1.56374 -3.15841,-2.32862 -5.49668,-2.29462c-2.51277,0.03399 -4.44969,0.69689 -5.81078,1.98867c-1.46578,1.32578 -2.16377,3.17848 -2.09397,5.55808l-0.52349,0.05099z"/>
  <path id="svg_1" fill="#707968" d="m32.1398,580l-10.416,0l0.048,-0.48l1.008,0c0.704,0 1.312,-0.256 1.824,-0.768c0.544,-0.512 0.816,-1.12 0.816,-1.824l0,-25.296c0,-1.568 -0.736,-2.352 -2.208,-2.352l-1.824,0l0,-0.48c3.04,-0.416 5.248,-1.44 6.624,-3.072l0.48,0l0,31.2c0,0.736 0.256,1.344 0.768,1.824c0.512,0.512 1.136,0.768 1.872,0.768l1.008,0l0,0.48zm18.804,-17.904c2.336,1.152 4.048,2.272 5.136,3.36c1.664,1.696 2.496,3.744 2.496,6.144c0,2.688 -0.944,4.864 -2.832,6.528c-1.888,1.696 -4.4,2.544 -7.536,2.544c-3.168,0 -5.712,-0.864 -7.632,-2.592c-1.952,-1.728 -2.864,-3.984 -2.736,-6.768c0.16,-3.84 2.464,-6.8 6.912,-8.88c-3.456,-2.496 -5.184,-5.392 -5.184,-8.688c0,-2.304 0.768,-4.192 2.304,-5.664c1.568,-1.536 3.68,-2.32 6.336,-2.352c2.528,-0.064 4.592,0.624 6.192,2.064c1.632,1.504 2.448,3.52 2.448,6.048c0,4.064 -1.968,6.816 -5.904,8.256zm-1.776,-0.864c2.72,-2.016 4.08,-4.608 4.08,-7.776c0,-1.92 -0.448,-3.456 -1.344,-4.608c-0.896,-1.12 -2.112,-1.68 -3.648,-1.68c-1.568,0 -2.832,0.592 -3.792,1.776c-0.864,1.12 -1.296,2.512 -1.296,4.176c0,3.136 1.648,5.648 4.944,7.536l1.056,0.576zm-0.912,18c2.176,0 3.872,-0.72 5.088,-2.16c1.088,-1.28 1.632,-2.88 1.632,-4.8c0,-2.144 -0.784,-3.888 -2.352,-5.232c-0.608,-0.48 -1.376,-0.976 -2.304,-1.488l-1.2,-0.624l-1.152,-0.576c-0.64,-0.32 -1.232,-0.656 -1.776,-1.008c-3.136,2.144 -4.72,4.96 -4.752,8.448c-0.032,2.272 0.56,4.08 1.776,5.424c1.216,1.344 2.896,2.016 5.04,2.016z"/>
  <path id="svg_2" fill="#707968" d="m156.952,580l-10.416,0l0.048,-0.48l1.008,0c0.704,0 1.312,-0.256 1.824,-0.768c0.544,-0.512 0.816,-1.12 0.816,-1.824l0,-25.296c0,-1.568 -0.736,-2.352 -2.208,-2.352l-1.824,0l0,-0.48c3.04,-0.416 5.248,-1.44 6.624,-3.072l0.48,0l0,31.2c0,0.736 0.256,1.344 0.768,1.824c0.512,0.512 1.136,0.768 1.872,0.768l1.008,0l0,0.48zm21.156,-17.904c-1.184,1.504 -2.656,2.576 -4.416,3.216c-1.728,0.608 -3.424,0.72 -5.088,0.336c-1.728,-0.448 -3.136,-1.36 -4.224,-2.736c-1.184,-1.568 -1.808,-3.568 -1.872,-6c-0.096,-3.328 0.816,-6.016 2.736,-8.064c1.888,-1.952 4.336,-2.96 7.344,-3.024c3.36,-0.064 6.016,1.12 7.968,3.552c2.016,2.464 3.024,5.888 3.024,10.272c0,5.376 -1.296,10.144 -3.888,14.304c-3.008,4.768 -7.088,7.376 -12.24,7.824l-0.144,-0.336c4.256,-1.184 7.504,-3.888 9.744,-8.112c1.952,-3.744 2.928,-8.208 2.928,-13.392c0,-3.968 -0.608,-7.056 -1.824,-9.264c-1.28,-2.272 -3.136,-3.408 -5.568,-3.408c-2.176,0 -3.84,0.896 -4.992,2.688c-1.056,1.632 -1.552,3.728 -1.488,6.288c0.064,2.4 0.64,4.32 1.728,5.76c1.152,1.472 2.736,2.192 4.752,2.16c2.272,-0.064 4.032,-0.896 5.28,-2.496l0.24,0.432z"/>
  <path id="svg_3" fill="#707968" d="m19.1493,676.32l-0.864,-5.472c0.928,-0.896 2.208,-1.648 3.84,-2.256c1.632,-0.576 3.216,-0.864 4.752,-0.864c3.2,0 5.744,0.848 7.632,2.544c1.92,1.696 2.88,4.016 2.88,6.96c0,3.52 -1.904,7.616 -5.712,12.288c-1.28,1.6 -2.912,3.408 -4.8961,5.424l-1.1999,1.2c-0.256,0.288 -0.624,0.672 -1.104,1.152c-0.96,0.928 -1.632,1.6 -2.016,2.016l11.04,0c1.376,0 2.464,-0.304 3.264,-0.912c0.704,-0.544 1.488,-1.6 2.352,-3.168l0.48,0l-2.304,6.768l-19.68,0l0,-0.48c1.6,-1.472 3.232,-3.104 4.896,-4.896c1.984,-2.144 3.744,-4.256 5.28,-6.336c4,-5.312 6,-9.6 6,-12.864c0,-2.592 -0.624,-4.624 -1.872,-6.096c-1.216,-1.472 -2.896,-2.192 -5.04,-2.16c-2.304,0.032 -4.08,0.656 -5.328,1.872c-1.344,1.248 -1.984,2.992 -1.92,5.232l-0.48,0.048zm40.8352,-4.272l-11.28,0.72l-2.208,7.584c4.224,-1.056 7.792,-0.768 10.704,0.864c3.104,1.728 4.576,4.592 4.416,8.592c-0.224,5.088 -2.768,8.912 -7.632,11.472c-1.824,0.96 -3.776,1.632 -5.856,2.016c-1.824,0.32 -3.296,0.384 -4.416,0.192l0.096,-0.48c2.624,0.064 5.424,-0.96 8.4,-3.072c3.584,-2.56 5.52,-5.808 5.808,-9.744c0.224,-3.232 -0.992,-5.52 -3.648,-6.864c-2.656,-1.312 -5.952,-1.312 -9.888,0l-0.432,-0.192l3.744,-13.008l9.504,-0.72c1.728,0 2.992,-0.8 3.792,-2.4l0.48,0l-1.584,5.04z"/>
  <path id="svg_4" fill="#707968" d="m142.673,676.32l-0.864,-5.472c0.928,-0.896 2.208,-1.648 3.84,-2.256c1.632,-0.576 3.216,-0.864 4.752,-0.864c3.2,0 5.744,0.848 7.632,2.544c1.92,1.696 2.88,4.016 2.88,6.96c0,3.52 -1.904,7.616 -5.712,12.288c-1.28,1.6 -2.912,3.408 -4.896,5.424l-1.2,1.2c-0.256,0.288 -0.624,0.672 -1.104,1.152c-0.96,0.928 -1.632,1.6 -2.016,2.016l11.04,0c1.376,0 2.464,-0.304 3.264,-0.912c0.704,-0.544 1.488,-1.6 2.352,-3.168l0.48,0l-2.304,6.768l-19.68,0l0,-0.48c1.6,-1.472 3.232,-3.104 4.896,-4.896c1.984,-2.144 3.744,-4.256 5.28,-6.336c4,-5.312 6,-9.6 6,-12.864c0,-2.592 -0.624,-4.624 -1.872,-6.096c-1.216,-1.472 -2.896,-2.192 -5.04,-2.16c-2.304,0.032 -4.08,0.656 -5.328,1.872c-1.344,1.248 -1.984,2.992 -1.92,5.232l-0.48,0.048zm30.755,10.128c1.248,-1.504 2.736,-2.576 4.464,-3.216c1.696,-0.64 3.344,-0.784 4.944,-0.432c1.728,0.384 3.12,1.28 4.176,2.688c1.216,1.568 1.904,3.616 2.064,6.144c0.192,2.912 -0.624,5.44 -2.448,7.584c-1.952,2.304 -4.496,3.472 -7.632,3.504c-3.296,0.064 -5.952,-1.12 -7.968,-3.552c-2.112,-2.528 -3.136,-5.936 -3.072,-10.224c0.064,-5.472 1.392,-10.24 3.984,-14.304c2.944,-4.64 6.992,-7.264 12.144,-7.872l0.192,0.336c-4.352,1.376 -7.616,4.144 -9.792,8.304c-1.952,3.712 -2.928,8.224 -2.928,13.536c0,3.744 0.624,6.704 1.872,8.88c1.312,2.304 3.168,3.456 5.568,3.456c2.144,0 3.808,-0.928 4.992,-2.784c1.024,-1.632 1.52,-3.696 1.488,-6.192c-0.032,-2.432 -0.608,-4.352 -1.728,-5.76c-1.152,-1.44 -2.736,-2.16 -4.752,-2.16c-2.272,0.032 -4.032,0.864 -5.28,2.496l-0.288,-0.432z"/>
  <path id="svg_5" fill="#707968" d="m274.056,676.32l-0.864,-5.472c0.928,-0.896 2.208,-1.648 3.84,-2.256c1.632,-0.576 3.216,-0.864 4.752,-0.864c3.2,0 5.744,0.848 7.632,2.544c1.92,1.696 2.88,4.016 2.88,6.96c0,3.52 -1.904,7.616 -5.712,12.288c-1.28,1.6 -2.912,3.408 -4.896,5.424l-1.2,1.2c-0.256,0.288 -0.624,0.672 -1.104,1.152c-0.96,0.928 -1.632,1.6 -2.016,2.016l11.04,0c1.376,0 2.464,-0.304 3.264,-0.912c0.704,-0.544 1.488,-1.6 2.352,-3.168l0.48,0l-2.304,6.768l-19.68,0l0,-0.48c1.6,-1.472 3.232,-3.104 4.896,-4.896c1.984,-2.144 3.744,-4.256 5.28,-6.336c4,-5.312 6,-9.6 6,-12.864c0,-2.592 -0.624,-4.624 -1.872,-6.096c-1.216,-1.472 -2.896,-2.192 -5.04,-2.16c-2.304,0.032 -4.08,0.656 -5.328,1.872c-1.344,1.248 -1.984,2.992 -1.92,5.232l-0.48,0.048zm23.843,-2.4l1.344,-5.424l19.2,0l-5.184,13.824c-0.352,0.96 -0.8,2.176 -1.344,3.648c-0.64,1.856 -1.264,3.648 -1.872,5.376c-1.6,4.8 -2.672,8.352 -3.216,10.656l-3.36,0c0.576,-1.44 1.168,-2.912 1.776,-4.416c0.736,-1.888 1.44,-3.68 2.112,-5.376c1.728,-4.384 3.04,-7.744 3.936,-10.08l4.224,-11.088l-13.536,0c-1.696,0 -2.896,0.96 -3.6,2.88l-0.48,0z"/>
  <path id="svg_6" fill="#707968" d="m392.86,676.32l-0.864,-5.472c0.928,-0.896 2.208,-1.648 3.84,-2.256c1.632,-0.576 3.216,-0.864 4.752,-0.864c3.2,0 5.744,0.848 7.632,2.544c1.92,1.696 2.88,4.016 2.88,6.96c0,3.52 -1.904,7.616 -5.712,12.288c-1.28,1.6 -2.912,3.408 -4.896,5.424l-1.2,1.2c-0.256,0.288 -0.624,0.672 -1.104,1.152c-0.96,0.928 -1.632,1.6 -2.016,2.016l11.04,0c1.376,0 2.464,-0.304 3.264,-0.912c0.704,-0.544 1.488,-1.6 2.352,-3.168l0.48,0l-2.304,6.768l-19.68,0l0,-0.48c1.6,-1.472 3.232,-3.104 4.896,-4.896c1.984,-2.144 3.744,-4.256 5.28,-6.336c4,-5.312 6,-9.6 6,-12.864c0,-2.592 -0.624,-4.624 -1.872,-6.096c-1.216,-1.472 -2.896,-2.192 -5.04,-2.16c-2.304,0.032 -4.08,0.656 -5.328,1.872c-1.344,1.248 -1.984,2.992 -1.92,5.232l-0.48,0.048zm38.099,7.776c2.336,1.152 4.048,2.272 5.136,3.36c1.664,1.696 2.496,3.744 2.496,6.144c0,2.688 -0.944,4.864 -2.832,6.528c-1.888,1.696 -4.4,2.544 -7.536,2.544c-3.168,0 -5.712,-0.864 -7.632,-2.592c-1.952,-1.728 -2.864,-3.984 -2.736,-6.768c0.16,-3.84 2.464,-6.8 6.912,-8.88c-3.456,-2.496 -5.184,-5.392 -5.184,-8.688c0,-2.304 0.768,-4.192 2.304,-5.664c1.568,-1.536 3.68,-2.32 6.336,-2.352c2.528,-0.064 4.592,0.624 6.192,2.064c1.632,1.504 2.448,3.52 2.448,6.048c0,4.064 -1.968,6.816 -5.904,8.256zm-1.776,-0.864c2.72,-2.016 4.08,-4.608 4.08,-7.776c0,-1.92 -0.448,-3.456 -1.344,-4.608c-0.896,-1.12 -2.112,-1.68 -3.648,-1.68c-1.568,0 -2.832,0.592 -3.792,1.776c-0.864,1.12 -1.296,2.512 -1.296,4.176c0,3.136 1.648,5.648 4.944,7.536l1.056,0.576zm-0.912,18c2.176,0 3.872,-0.72 5.088,-2.16c1.088,-1.28 1.632,-2.88 1.632,-4.8c0,-2.144 -0.784,-3.888 -2.352,-5.232c-0.608,-0.48 -1.376,-0.976 -2.304,-1.488l-1.2,-0.624l-1.152,-0.576c-0.64,-0.32 -1.232,-0.656 -1.776,-1.008c-3.136,2.144 -4.72,4.96 -4.752,8.448c-0.032,2.272 0.56,4.08 1.776,5.424c1.216,1.344 2.896,2.016 5.04,2.016z"/>
  <path id="svg_7" fill="#707968" d="m522.673,676.32l-0.864,-5.472c0.928,-0.896 2.208,-1.648 3.84,-2.256c1.632,-0.576 3.216,-0.864 4.752,-0.864c3.2,0 5.744,0.848 7.632,2.544c1.92,1.696 2.88,4.016 2.88,6.96c0,3.52 -1.904,7.616 -5.712,12.288c-1.28,1.6 -2.912,3.408 -4.896,5.424l-1.2,1.2c-0.256,0.288 -0.624,0.672 -1.104,1.152c-0.96,0.928 -1.632,1.6 -2.016,2.016l11.04,0c1.376,0 2.464,-0.304 3.264,-0.912c0.704,-0.544 1.488,-1.6 2.352,-3.168l0.48,0l-2.304,6.768l-19.68,0l0,-0.48c1.6,-1.472 3.232,-3.104 4.896,-4.896c1.984,-2.144 3.744,-4.256 5.28,-6.336c4,-5.312 6,-9.6 6,-12.864c0,-2.592 -0.624,-4.624 -1.872,-6.096c-1.216,-1.472 -2.896,-2.192 -5.04,-2.16c-2.304,0.032 -4.08,0.656 -5.328,1.872c-1.344,1.248 -1.984,2.992 -1.92,5.232l-0.48,0.048zm40.451,7.776c-1.184,1.504 -2.656,2.576 -4.416,3.216c-1.728,0.608 -3.424,0.72 -5.088,0.336c-1.728,-0.448 -3.136,-1.36 -4.224,-2.736c-1.184,-1.568 -1.808,-3.568 -1.872,-6c-0.096,-3.328 0.816,-6.016 2.736,-8.064c1.888,-1.952 4.336,-2.96 7.344,-3.024c3.36,-0.064 6.016,1.12 7.968,3.552c2.016,2.464 3.024,5.888 3.024,10.272c0,5.376 -1.296,10.144 -3.888,14.304c-3.008,4.768 -7.088,7.376 -12.24,7.824l-0.144,-0.336c4.256,-1.184 7.504,-3.888 9.744,-8.112c1.952,-3.744 2.928,-8.208 2.928,-13.392c0,-3.968 -0.608,-7.056 -1.824,-9.264c-1.28,-2.272 -3.136,-3.408 -5.568,-3.408c-2.176,0 -3.84,0.896 -4.992,2.688c-1.056,1.632 -1.552,3.728 -1.488,6.288c0.064,2.4 0.64,4.32 1.728,5.76c1.152,1.472 2.736,2.192 4.752,2.16c2.272,-0.064 4.032,-0.896 5.28,-2.496l0.24,0.432z"/>
  <path id="svg_8" fill="#707968" d="m649.513,671.232c1.888,-2.112 4.384,-3.248 7.488,-3.408c2.816,-0.128 5.12,0.512 6.912,1.92c1.696,1.344 2.544,3.088 2.544,5.232c0,1.952 -0.704,3.744 -2.112,5.376c-1.344,1.568 -2.832,2.432 -4.464,2.592c2.048,0.352 3.76,1.248 5.136,2.688c1.568,1.6 2.352,3.6 2.352,6c0,3.808 -1.776,6.944 -5.328,9.408c-3.648,2.496 -7.84,3.328 -12.576,2.496l0.096,-0.48c3.872,0.096 7.2,-0.944 9.984,-3.12c2.816,-2.24 4.224,-5.056 4.224,-8.448c0,-2.624 -0.928,-4.624 -2.784,-6c-1.728,-1.28 -4.08,-1.92 -7.056,-1.92l0.096,-0.48c2.336,0 4.368,-0.72 6.096,-2.16c1.92,-1.568 2.816,-3.584 2.688,-6.048c-0.064,-1.568 -0.56,-2.864 -1.488,-3.888c-1.056,-1.152 -2.528,-1.728 -4.416,-1.728c-1.984,0 -3.52,0.592 -4.608,1.776c-1.088,1.184 -1.584,2.736 -1.488,4.656l-0.48,0l-0.816,-4.464zm35.564,-3.504c3.488,0 6.24,1.552 8.256,4.656c2.016,3.136 3.024,7.408 3.024,12.816c0,5.408 -1.008,9.68 -3.024,12.816c-2.016,3.104 -4.768,4.656 -8.256,4.656c-3.488,0 -6.24,-1.552 -8.256,-4.656c-2.016,-3.136 -3.024,-7.408 -3.024,-12.816c0,-5.408 1.008,-9.68 3.024,-12.816c2.016,-3.104 4.768,-4.656 8.256,-4.656zm0,1.44c-2.464,0 -4.4,1.424 -5.808,4.272c-1.408,2.88 -2.112,6.8 -2.112,11.76c0,4.96 0.704,8.88 2.112,11.76c1.408,2.848 3.344,4.272 5.808,4.272c2.464,0 4.4,-1.424 5.808,-4.272c1.408,-2.88 2.112,-6.8 2.112,-11.76c0,-4.96 -0.704,-8.88 -2.112,-11.76c-1.408,-2.848 -3.344,-4.272 -5.808,-4.272z"/>
  <path id="svg_9" fill="#707968" d="m776.56,671.232c1.888,-2.112 4.384,-3.248 7.488,-3.408c2.816,-0.128 5.12,0.512 6.912,1.92c1.696,1.344 2.544,3.088 2.544,5.232c0,1.952 -0.704,3.744 -2.112,5.376c-1.344,1.568 -2.832,2.432 -4.464,2.592c2.048,0.352 3.76,1.248 5.136,2.688c1.568,1.6 2.352,3.6 2.352,6c0,3.808 -1.776,6.944 -5.328,9.408c-3.648,2.496 -7.84,3.328 -12.576,2.496l0.096,-0.48c3.872,0.096 7.2,-0.944 9.984,-3.12c2.816,-2.24 4.224,-5.056 4.224,-8.448c0,-2.624 -0.928,-4.624 -2.784,-6c-1.728,-1.28 -4.08,-1.92 -7.056,-1.92l0.096,-0.48c2.336,0 4.368,-0.72 6.096,-2.16c1.92,-1.568 2.816,-3.584 2.688,-6.048c-0.064,-1.568 -0.56,-2.864 -1.488,-3.888c-1.056,-1.152 -2.528,-1.728 -4.416,-1.728c-1.984,0 -3.52,0.592 -4.608,1.776c-1.088,1.184 -1.584,2.736 -1.488,4.656l-0.48,0l-0.816,-4.464zm34.892,30.768l-10.416,0l0.048,-0.48l1.008,0c0.704,0 1.312,-0.256 1.824,-0.768c0.544,-0.512 0.816,-1.12 0.816,-1.824l0,-25.296c0,-1.568 -0.736,-2.352 -2.208,-2.352l-1.824,0l0,-0.48c3.04,-0.416 5.248,-1.44 6.624,-3.072l0.48,0l0,31.2c0,0.736 0.256,1.344 0.768,1.824c0.512,0.512 1.136,0.768 1.872,0.768l1.008,0l0,0.48z"/>
  <path stroke="null" filter="url(#svg_10_blur)" id="svg_10" fill="#ffffff" d="m254.86568,548.20461l-1.46007,-9.85662c1.56822,-1.61395 3.73128,-2.96851 6.48919,-4.06369c2.75791,-1.03754 5.4347,-1.55631 8.03037,-1.55631c5.40766,0 9.70674,1.52749 12.89726,4.58246c3.24459,3.05497 4.86689,7.23395 4.86689,12.53692c0,6.34051 -3.21756,13.71857 -9.65267,22.13416c-2.16306,2.88205 -4.92097,6.13877 -8.27372,9.77015l-2.02787,2.16154c-0.43261,0.51877 -1.05449,1.21046 -1.86564,2.07508c-1.6223,1.67159 -2.75791,2.88205 -3.40682,3.63139l18.65642,0c2.32529,0 4.1639,-0.54759 5.51581,-1.64277c1.18968,-0.9799 2.51456,-2.88205 3.97463,-5.70646l0.81115,0l-3.89351,12.19108l-33.25709,0l0,-0.86462c2.70383,-2.65149 5.46173,-5.59118 8.27372,-8.81908c3.35275,-3.86195 6.32696,-7.66626 8.92263,-11.41292c6.75957,-9.56841 10.13936,-17.29231 10.13936,-23.17169c0,-4.66892 -1.05449,-8.32913 -3.16348,-10.98062c-2.05491,-2.65149 -4.89393,-3.94841 -8.51706,-3.89077c-3.89351,0.05764 -6.89476,1.18164 -9.00375,3.372c-2.27122,2.248 -3.35275,5.38944 -3.24459,9.42431l-0.81115,0.08646zm61.62532,-15.47662c5.89435,0 10.54493,2.79559 13.95175,8.38677c3.40682,5.64882 5.11024,13.3439 5.11024,23.08523c0,9.74133 -1.70341,17.43641 -5.11024,23.08523c-3.40682,5.59118 -8.05741,8.38677 -13.95175,8.38677c-5.89435,0 -10.54493,-2.79559 -13.95175,-8.38677c-3.40682,-5.64882 -5.11024,-13.3439 -5.11024,-23.08523c0,-9.74133 1.70341,-17.43641 5.11024,-23.08523c3.40682,-5.59118 8.05741,-8.38677 13.95175,-8.38677zm0,2.59385c-4.1639,0 -7.43553,2.56503 -9.8149,7.69508c-2.37937,5.18769 -3.56905,12.24872 -3.56905,21.18308c0,8.93436 1.18968,15.99539 3.56905,21.18308c2.37937,5.13005 5.651,7.69508 9.8149,7.69508c4.1639,0 7.43553,-2.56503 9.8149,-7.69508c2.37937,-5.18769 3.56905,-12.24872 3.56905,-21.18308c0,-8.93436 -1.18968,-15.99539 -3.56905,-21.18308c-2.37937,-5.13005 -5.651,-7.69508 -9.8149,-7.69508z"/>
  <path id="svg_11" fill="#707968" d="m397.852,556.32l-0.864,-5.472c0.928,-0.896 2.208,-1.648 3.84,-2.256c1.632,-0.576 3.216,-0.864 4.752,-0.864c3.2,0 5.744,0.848 7.632,2.544c1.92,1.696 2.88,4.016 2.88,6.96c0,3.52 -1.904,7.616 -5.712,12.288c-1.28,1.6 -2.912,3.408 -4.896,5.424l-1.2,1.2c-0.256,0.288 -0.624,0.672 -1.104,1.152c-0.96,0.928 -1.632,1.6 -2.016,2.016l11.04,0c1.376,0 2.464,-0.304 3.264,-0.912c0.704,-0.544 1.488,-1.6 2.352,-3.168l0.48,0l-2.304,6.768l-19.68,0l0,-0.48c1.6,-1.472 3.232,-3.104 4.896,-4.896c1.984,-2.144 3.744,-4.256 5.28,-6.336c4,-5.312 6,-9.6 6,-12.864c0,-2.592 -0.624,-4.624 -1.872,-6.096c-1.216,-1.472 -2.896,-2.192 -5.04,-2.16c-2.304,0.032 -4.08,0.656 -5.328,1.872c-1.344,1.248 -1.984,2.992 -1.92,5.232l-0.48,0.048zm35.796,25.68l-10.416,0l0.048,-0.48l1.008,0c0.704,0 1.312,-0.256 1.824,-0.768c0.544,-0.512 0.816,-1.12 0.816,-1.824l0,-25.296c0,-1.568 -0.736,-2.352 -2.208,-2.352l-1.824,0l0,-0.48c3.04,-0.416 5.248,-1.44 6.624,-3.072l0.48,0l0,31.2c0,0.736 0.256,1.344 0.768,1.824c0.512,0.512 1.136,0.768 1.872,0.768l1.008,0l0,0.48z"/>
  <path id="svg_12" fill="#707968" d="m522.837,556.32l-0.864,-5.472c0.928,-0.896 2.208,-1.648 3.84,-2.256c1.632,-0.576 3.216,-0.864 4.752,-0.864c3.2,0 5.744,0.848 7.632,2.544c1.92,1.696 2.88,4.016 2.88,6.96c0,3.52 -1.904,7.616 -5.712,12.288c-1.28,1.6 -2.912,3.408 -4.896,5.424l-1.2,1.2c-0.256,0.288 -0.624,0.672 -1.104,1.152c-0.96,0.928 -1.632,1.6 -2.016,2.016l11.04,0c1.376,0 2.464,-0.304 3.264,-0.912c0.704,-0.544 1.488,-1.6 2.352,-3.168l0.48,0l-2.304,6.768l-19.68,0l0,-0.48c1.6,-1.472 3.232,-3.104 4.896,-4.896c1.984,-2.144 3.744,-4.256 5.28,-6.336c4,-5.312 6,-9.6 6,-12.864c0,-2.592 -0.624,-4.624 -1.872,-6.096c-1.216,-1.472 -2.896,-2.192 -5.04,-2.16c-2.304,0.032 -4.08,0.656 -5.328,1.872c-1.344,1.248 -1.984,2.992 -1.92,5.232l-0.48,0.048zm26.531,0l-0.864,-5.472c0.928,-0.896 2.208,-1.648 3.84,-2.256c1.632,-0.576 3.216,-0.864 4.752,-0.864c3.2,0 5.744,0.848 7.632,2.544c1.92,1.696 2.88,4.016 2.88,6.96c0,3.52 -1.904,7.616 -5.712,12.288c-1.28,1.6 -2.912,3.408 -4.896,5.424l-1.2,1.2c-0.256,0.288 -0.624,0.672 -1.104,1.152c-0.96,0.928 -1.632,1.6 -2.016,2.016l11.04,0c1.376,0 2.464,-0.304 3.264,-0.912c0.704,-0.544 1.488,-1.6 2.352,-3.168l0.48,0l-2.304,6.768l-19.68,0l0,-0.48c1.6,-1.472 3.232,-3.104 4.896,-4.896c1.984,-2.144 3.744,-4.256 5.28,-6.336c4,-5.312 6,-9.6 6,-12.864c0,-2.592 -0.624,-4.624 -1.872,-6.096c-1.216,-1.472 -2.896,-2.192 -5.04,-2.16c-2.304,0.032 -4.08,0.656 -5.328,1.872c-1.344,1.248 -1.984,2.992 -1.92,5.232l-0.48,0.048z"/>
  <path id="svg_13" fill="#707968" d="m652.532,556.32l-0.864,-5.472c0.928,-0.896 2.208,-1.648 3.84,-2.256c1.632,-0.576 3.216,-0.864 4.752,-0.864c3.2,0 5.744,0.848 7.632,2.544c1.92,1.696 2.88,4.016 2.88,6.96c0,3.52 -1.904,7.616 -5.712,12.288c-1.28,1.6 -2.912,3.408 -4.896,5.424l-1.2,1.2c-0.256,0.288 -0.624,0.672 -1.104,1.152c-0.96,0.928 -1.632,1.6 -2.016,2.016l11.04,0c1.376,0 2.464,-0.304 3.264,-0.912c0.704,-0.544 1.488,-1.6 2.352,-3.168l0.48,0l-2.304,6.768l-19.68,0l0,-0.48c1.6,-1.472 3.232,-3.104 4.896,-4.896c1.984,-2.144 3.744,-4.256 5.28,-6.336c4,-5.312 6,-9.6 6,-12.864c0,-2.592 -0.624,-4.624 -1.872,-6.096c-1.216,-1.472 -2.896,-2.192 -5.04,-2.16c-2.304,0.032 -4.08,0.656 -5.328,1.872c-1.344,1.248 -1.984,2.992 -1.92,5.232l-0.48,0.048zm25.043,-5.088c1.888,-2.112 4.384,-3.248 7.488,-3.408c2.816,-0.128 5.12,0.512 6.912,1.92c1.696,1.344 2.544,3.088 2.544,5.232c0,1.952 -0.704,3.744 -2.112,5.376c-1.344,1.568 -2.832,2.432 -4.464,2.592c2.048,0.352 3.76,1.248 5.136,2.688c1.568,1.6 2.352,3.6 2.352,6c0,3.808 -1.776,6.944 -5.328,9.408c-3.648,2.496 -7.84,3.328 -12.576,2.496l0.096,-0.48c3.872,0.096 7.2,-0.944 9.984,-3.12c2.816,-2.24 4.224,-5.056 4.224,-8.448c0,-2.624 -0.928,-4.624 -2.784,-6c-1.728,-1.28 -4.08,-1.92 -7.056,-1.92l0.096,-0.48c2.336,0 4.368,-0.72 6.096,-2.16c1.92,-1.568 2.816,-3.584 2.688,-6.048c-0.064,-1.568 -0.56,-2.864 -1.488,-3.888c-1.056,-1.152 -2.528,-1.728 -4.416,-1.728c-1.984,0 -3.52,0.592 -4.608,1.776c-1.088,1.184 -1.584,2.736 -1.488,4.656l-0.48,0l-0.816,-4.464z"/>
  <path id="svg_14" fill="#707968" d="m771.11,554.32l-0.864,-5.472c0.928,-0.896 2.208,-1.648 3.84,-2.256c1.632,-0.576 3.216,-0.864 4.752,-0.864c3.2,0 5.744,0.848 7.632,2.544c1.92,1.696 2.88,4.016 2.88,6.96c0,3.52 -1.904,7.616 -5.712,12.288c-1.28,1.6 -2.912,3.408 -4.896,5.424l-1.2,1.2c-0.256,0.288 -0.624,0.672 -1.104,1.152c-0.96,0.928 -1.632,1.6 -2.016,2.016l11.04,0c1.376,0 2.464,-0.304 3.264,-0.912c0.704,-0.544 1.488,-1.6 2.352,-3.168l0.48,0l-2.304,6.768l-19.68,0l0,-0.48c1.6,-1.472 3.232,-3.104 4.896,-4.896c1.984,-2.144 3.744,-4.256 5.28,-6.336c4,-5.312 6,-9.6 6,-12.864c0,-2.592 -0.624,-4.624 -1.872,-6.096c-1.216,-1.472 -2.896,-2.192 -5.04,-2.16c-2.304,0.032 -4.08,0.656 -5.328,1.872c-1.344,1.248 -1.984,2.992 -1.92,5.232l-0.48,0.048zm42.131,13.728l0,8.928c0,0.704 0.256,1.296 0.768,1.776c0.512,0.512 1.136,0.768 1.872,0.768l0.528,0l0,0.48l-9.504,0l0.048,-0.48l0.48,0c0.736,0 1.36,-0.24 1.872,-0.72c0.512,-0.48 0.784,-1.072 0.816,-1.776l0,-8.976l-14.928,0l0,-0.48l17.568,-21.84l0.48,0l0,19.68l2.064,0c1.216,0 2.096,-0.32 2.64,-0.96l0.48,0l-1.008,3.6l-4.176,0zm-3.12,-2.64l0,-14.016l-11.328,14.016l11.328,0z"/>
  <path id="svg_15" fill="#707968" d="m550.382,213l-10.416,0l0.048,-0.48l1.008,0c0.704,0 1.312,-0.256 1.824,-0.768c0.544,-0.512 0.816,-1.12 0.816,-1.824l0,-25.296c0,-1.568 -0.736,-2.352 -2.208,-2.352l-1.824,0l0,-0.48c3.04,-0.416 5.248,-1.44 6.624,-3.072l0.48,0l0,31.2c0,0.736 0.256,1.344 0.768,1.824c0.512,0.512 1.136,0.768 1.872,0.768l1.008,0l0,0.48z"/>
  <path id="svg_17" fill="#707968" d="m784.81,182.232c1.888,-2.112 4.384,-3.248 7.488,-3.408c2.816,-0.128 5.12,0.512 6.912,1.92c1.696,1.344 2.544,3.088 2.544,5.232c0,1.952 -0.704,3.744 -2.112,5.376c-1.344,1.568 -2.832,2.432 -4.464,2.592c2.048,0.352 3.76,1.248 5.136,2.688c1.568,1.6 2.352,3.6 2.352,6c0,3.808 -1.776,6.944 -5.328,9.408c-3.648,2.496 -7.84,3.328 -12.576,2.496l0.096,-0.48c3.872,0.096 7.2,-0.944 9.984,-3.12c2.816,-2.24 4.224,-5.056 4.224,-8.448c0,-2.624 -0.928,-4.624 -2.784,-6c-1.728,-1.28 -4.08,-1.92 -7.056,-1.92l0.096,-0.48c2.336,0 4.368,-0.72 6.096,-2.16c1.92,-1.568 2.816,-3.584 2.688,-6.048c-0.064,-1.568 -0.56,-2.864 -1.488,-3.888c-1.056,-1.152 -2.528,-1.728 -4.416,-1.728c-1.984,0 -3.52,0.592 -4.608,1.776c-1.088,1.184 -1.584,2.736 -1.488,4.656l-0.48,0l-0.816,-4.464z"/>
  <path id="svg_18" fill="#707968" d="m50.9758,323.048l0,8.928c0,0.704 0.256,1.296 0.768,1.776c0.512,0.512 1.136,0.768 1.872,0.768l0.528,0l0,0.48l-9.504,0l0.048,-0.48l0.48,0c0.736,0 1.36,-0.24 1.872,-0.72c0.512,-0.48 0.784,-1.072 0.816,-1.776l0,-8.976l-14.928,0l0,-0.48l17.568,-21.84l0.48,0l0,19.68l2.064,0c1.216,0 2.096,-0.32 2.64,-0.96l0.48,0l-1.008,3.6l-4.176,0zm-3.12,-2.64l0,-14.016l-11.328,14.016l11.328,0z"/>
  <path id="svg_19" fill="#707968" d="m176.719,305.048l-11.28,0.72l-2.208,7.584c4.224,-1.056 7.792,-0.768 10.704,0.864c3.104,1.728 4.576,4.592 4.416,8.592c-0.224,5.088 -2.768,8.912 -7.632,11.472c-1.824,0.96 -3.776,1.632 -5.856,2.016c-1.824,0.32 -3.296,0.384 -4.416,0.192l0.096,-0.48c2.624,0.064 5.424,-0.96 8.4,-3.072c3.584,-2.56 5.52,-5.808 5.808,-9.744c0.224,-3.232 -0.992,-5.52 -3.648,-6.864c-2.656,-1.312 -5.952,-1.312 -9.888,0l-0.432,-0.192l3.744,-13.008l9.504,-0.72c1.728,0 2.992,-0.8 3.792,-2.4l0.48,0l-1.584,5.04z"/>
  <path id="svg_20" fill="#707968" d="m290.162,319.448c1.248,-1.504 2.736,-2.576 4.464,-3.216c1.696,-0.64 3.344,-0.784 4.944,-0.432c1.728,0.384 3.12,1.28 4.176,2.688c1.216,1.568 1.904,3.616 2.064,6.144c0.192,2.912 -0.624,5.44 -2.448,7.584c-1.952,2.304 -4.496,3.472 -7.632,3.504c-3.296,0.064 -5.952,-1.12 -7.968,-3.552c-2.112,-2.528 -3.136,-5.936 -3.072,-10.224c0.064,-5.472 1.392,-10.24 3.984,-14.304c2.944,-4.64 6.992,-7.264 12.144,-7.872l0.192,0.336c-4.352,1.376 -7.616,4.144 -9.792,8.304c-1.952,3.712 -2.928,8.224 -2.928,13.536c0,3.744 0.624,6.704 1.872,8.88c1.312,2.304 3.168,3.456 5.568,3.456c2.144,0 3.808,-0.928 4.992,-2.784c1.024,-1.632 1.52,-3.696 1.488,-6.192c-0.032,-2.432 -0.608,-4.352 -1.728,-5.76c-1.152,-1.44 -2.736,-2.16 -4.752,-2.16c-2.272,0.032 -4.032,0.864 -5.28,2.496l-0.288,-0.432z"/>
  <path id="svg_21" fill="#707968" d="m409.633,306.92l1.344,-5.424l19.2,0l-5.184,13.824c-0.352,0.96 -0.8,2.176 -1.344,3.648c-0.64,1.856 -1.264,3.648 -1.872,5.376c-1.6,4.8 -2.672,8.352 -3.216,10.656l-3.36,0c0.576,-1.44 1.168,-2.912 1.776,-4.416c0.736,-1.888 1.44,-3.68 2.112,-5.376c1.728,-4.384 3.04,-7.744 3.936,-10.08l4.224,-11.088l-13.536,0c-1.696,0 -2.896,0.96 -3.6,2.88l-0.48,0z"/>
  <path id="svg_22" fill="#707968" d="m547.694,317.096c2.336,1.152 4.048,2.272 5.136,3.36c1.664,1.696 2.496,3.744 2.496,6.144c0,2.688 -0.944,4.864 -2.832,6.528c-1.888,1.696 -4.4,2.544 -7.536,2.544c-3.168,0 -5.712,-0.864 -7.632,-2.592c-1.952,-1.728 -2.864,-3.984 -2.736,-6.768c0.16,-3.84 2.464,-6.8 6.912,-8.88c-3.456,-2.496 -5.184,-5.392 -5.184,-8.688c0,-2.304 0.768,-4.192 2.304,-5.664c1.568,-1.536 3.68,-2.32 6.336,-2.352c2.528,-0.064 4.592,0.624 6.192,2.064c1.632,1.504 2.448,3.52 2.448,6.048c0,4.064 -1.968,6.816 -5.904,8.256zm-1.776,-0.864c2.72,-2.016 4.08,-4.608 4.08,-7.776c0,-1.92 -0.448,-3.456 -1.344,-4.608c-0.896,-1.12 -2.112,-1.68 -3.648,-1.68c-1.568,0 -2.832,0.592 -3.792,1.776c-0.864,1.12 -1.296,2.512 -1.296,4.176c0,3.136 1.648,5.648 4.944,7.536l1.056,0.576zm-0.912,18c2.176,0 3.872,-0.72 5.088,-2.16c1.088,-1.28 1.632,-2.88 1.632,-4.8c0,-2.144 -0.784,-3.888 -2.352,-5.232c-0.608,-0.48 -1.376,-0.976 -2.304,-1.488l-1.2,-0.624l-1.152,-0.576c-0.64,-0.32 -1.232,-0.656 -1.776,-1.008c-3.136,2.144 -4.72,4.96 -4.752,8.448c-0.032,2.272 0.56,4.08 1.776,5.424c1.216,1.344 2.896,2.016 5.04,2.016z"/>
  <path id="svg_23" fill="#707968" d="m677.858,317.096c-1.184,1.504 -2.656,2.576 -4.416,3.216c-1.728,0.608 -3.424,0.72 -5.088,0.336c-1.728,-0.448 -3.136,-1.36 -4.224,-2.736c-1.184,-1.568 -1.808,-3.568 -1.872,-6c-0.096,-3.328 0.816,-6.016 2.736,-8.064c1.888,-1.952 4.336,-2.96 7.344,-3.024c3.36,-0.064 6.016,1.12 7.968,3.552c2.016,2.464 3.024,5.888 3.024,10.272c0,5.376 -1.296,10.144 -3.888,14.304c-3.008,4.768 -7.088,7.376 -12.24,7.824l-0.144,-0.336c4.256,-1.184 7.504,-3.888 9.744,-8.112c1.952,-3.744 2.928,-8.208 2.928,-13.392c0,-3.968 -0.608,-7.056 -1.824,-9.264c-1.28,-2.272 -3.136,-3.408 -5.568,-3.408c-2.176,0 -3.84,0.896 -4.992,2.688c-1.056,1.632 -1.552,3.728 -1.488,6.288c0.064,2.4 0.64,4.32 1.728,5.76c1.152,1.472 2.736,2.192 4.752,2.16c2.272,-0.064 4.032,-0.896 5.28,-2.496l0.24,0.432z"/>
  <path id="svg_24" fill="#707968" d="m785.085,335l-10.416,0l0.048,-0.48l1.008,0c0.704,0 1.312,-0.256 1.824,-0.768c0.544,-0.512 0.816,-1.12 0.816,-1.824l0,-25.296c0,-1.568 -0.736,-2.352 -2.208,-2.352l-1.824,0l0,-0.48c3.04,-0.416 5.248,-1.44 6.624,-3.072l0.48,0l0,31.2c0,0.736 0.256,1.344 0.768,1.824c0.512,0.512 1.136,0.768 1.872,0.768l1.008,0l0,0.48zm17.172,-34.272c3.488,0 6.24,1.552 8.256,4.656c2.016,3.136 3.024,7.408 3.024,12.816c0,5.408 -1.008,9.68 -3.024,12.816c-2.016,3.104 -4.768,4.656 -8.256,4.656c-3.488,0 -6.24,-1.552 -8.256,-4.656c-2.016,-3.136 -3.024,-7.408 -3.024,-12.816c0,-5.408 1.008,-9.68 3.024,-12.816c2.016,-3.104 4.768,-4.656 8.256,-4.656zm0,1.44c-2.464,0 -4.4,1.424 -5.808,4.272c-1.408,2.88 -2.112,6.8 -2.112,11.76c0,4.96 0.704,8.88 2.112,11.76c1.408,2.848 3.344,4.272 5.808,4.272c2.464,0 4.4,-1.424 5.808,-4.272c1.408,-2.88 2.112,-6.8 2.112,-11.76c0,-4.96 -0.704,-8.88 -2.112,-11.76c-1.408,-2.848 -3.344,-4.272 -5.808,-4.272z"/>
  <path id="svg_25" fill="#707968" d="m45.132,457l-10.416,0l0.048,-0.48l1.008,0c0.704,0 1.312,-0.256 1.824,-0.768c0.544,-0.512 0.816,-1.12 0.816,-1.824l0,-25.296c0,-1.568 -0.736,-2.352 -2.208,-2.352l-1.824,0l0,-0.48c3.04,-0.416 5.248,-1.44 6.624,-3.072l0.48,0l0,31.2c0,0.736 0.256,1.344 0.768,1.824c0.512,0.512 1.136,0.768 1.872,0.768l1.008,0l0,0.48zm16.5,0l-10.416,0l0.048,-0.48l1.008,0c0.704,0 1.312,-0.256 1.824,-0.768c0.544,-0.512 0.816,-1.12 0.816,-1.824l0,-25.296c0,-1.568 -0.736,-2.352 -2.208,-2.352l-1.824,0l0,-0.48c3.04,-0.416 5.248,-1.44 6.624,-3.072l0.48,0l0,31.2c0,0.736 0.256,1.344 0.768,1.824c0.512,0.512 1.136,0.768 1.872,0.768l1.008,0l0,0.48z"/>
  <path id="svg_26" fill="#707968" d="m165.116,457l-10.416,0l0.048,-0.48l1.008,0c0.704,0 1.312,-0.256 1.824,-0.768c0.544,-0.512 0.816,-1.12 0.816,-1.824l0,-25.296c0,-1.568 -0.736,-2.352 -2.208,-2.352l-1.824,0l0,-0.48c3.04,-0.416 5.248,-1.44 6.624,-3.072l0.48,0l0,31.2c0,0.736 0.256,1.344 0.768,1.824c0.512,0.512 1.136,0.768 1.872,0.768l1.008,0l0,0.48zm7.236,-25.68l-0.864,-5.472c0.928,-0.896 2.208,-1.648 3.84,-2.256c1.632,-0.576 3.216,-0.864 4.752,-0.864c3.2,0 5.744,0.848 7.632,2.544c1.92,1.696 2.88,4.016 2.88,6.96c0,3.52 -1.904,7.616 -5.712,12.288c-1.28,1.6 -2.912,3.408 -4.896,5.424l-1.2,1.2c-0.256,0.288 -0.624,0.672 -1.104,1.152c-0.96,0.928 -1.632,1.6 -2.016,2.016l11.04,0c1.376,0 2.464,-0.304 3.264,-0.912c0.704,-0.544 1.488,-1.6 2.352,-3.168l0.48,0l-2.304,6.768l-19.68,0l0,-0.48c1.6,-1.472 3.232,-3.104 4.896,-4.896c1.984,-2.144 3.744,-4.256 5.28,-6.336c4,-5.312 6,-9.6 6,-12.864c0,-2.592 -0.624,-4.624 -1.872,-6.096c-1.216,-1.472 -2.896,-2.192 -5.04,-2.16c-2.304,0.032 -4.08,0.656 -5.328,1.872c-1.344,1.248 -1.984,2.992 -1.92,5.232l-0.48,0.048z"/>
  <path id="svg_27" fill="#707968" d="m291.312,458l-10.416,0l0.048,-0.48l1.008,0c0.704,0 1.312,-0.256 1.824,-0.768c0.544,-0.512 0.816,-1.12 0.816,-1.824l0,-25.296c0,-1.568 -0.736,-2.352 -2.208,-2.352l-1.824,0l0,-0.48c3.04,-0.416 5.248,-1.44 6.624,-3.072l0.48,0l0,31.2c0,0.736 0.256,1.344 0.768,1.824c0.512,0.512 1.136,0.768 1.872,0.768l1.008,0l0,0.48zm5.748,-30.768c1.888,-2.112 4.384,-3.248 7.488,-3.408c2.816,-0.128 5.12,0.512 6.912,1.92c1.696,1.344 2.544,3.088 2.544,5.232c0,1.952 -0.704,3.744 -2.112,5.376c-1.344,1.568 -2.832,2.432 -4.464,2.592c2.048,0.352 3.76,1.248 5.136,2.688c1.568,1.6 2.352,3.6 2.352,6c0,3.808 -1.776,6.944 -5.328,9.408c-3.648,2.496 -7.84,3.328 -12.576,2.496l0.096,-0.48c3.872,0.096 7.2,-0.944 9.984,-3.12c2.816,-2.24 4.224,-5.056 4.224,-8.448c0,-2.624 -0.928,-4.624 -2.784,-6c-1.728,-1.28 -4.08,-1.92 -7.056,-1.92l0.096,-0.48c2.336,0 4.368,-0.72 6.096,-2.16c1.92,-1.568 2.816,-3.584 2.688,-6.048c-0.064,-1.568 -0.56,-2.864 -1.488,-3.888c-1.056,-1.152 -2.528,-1.728 -4.416,-1.728c-1.984,0 -3.52,0.592 -4.608,1.776c-1.088,1.184 -1.584,2.736 -1.488,4.656l-0.48,0l-0.816,-4.464z"/>
  <path id="svg_28" fill="#707968" d="m414.39,458l-10.416,0l0.048,-0.48l1.008,0c0.704,0 1.312,-0.256 1.824,-0.768c0.544,-0.512 0.816,-1.12 0.816,-1.824l0,-25.296c0,-1.568 -0.736,-2.352 -2.208,-2.352l-1.824,0l0,-0.48c3.04,-0.416 5.248,-1.44 6.624,-3.072l0.48,0l0,31.2c0,0.736 0.256,1.344 0.768,1.824c0.512,0.512 1.136,0.768 1.872,0.768l1.008,0l0,0.48zm22.836,-11.952l0,8.928c0,0.704 0.256,1.296 0.768,1.776c0.512,0.512 1.136,0.768 1.872,0.768l0.528,0l0,0.48l-9.504,0l0.048,-0.48l0.48,0c0.736,0 1.36,-0.24 1.872,-0.72c0.512,-0.48 0.784,-1.072 0.816,-1.776l0,-8.976l-14.928,0l0,-0.48l17.568,-21.84l0.48,0l0,19.68l2.064,0c1.216,0 2.096,-0.32 2.64,-0.96l0.48,0l-1.008,3.6l-4.176,0zm-3.12,-2.64l0,-14.016l-11.328,14.016l11.328,0z"/>
  <path id="svg_29" fill="#707968" d="m541.429,457l-10.416,0l0.048,-0.48l1.008,0c0.704,0 1.312,-0.256 1.824,-0.768c0.544,-0.512 0.816,-1.12 0.816,-1.824l0,-25.296c0,-1.568 -0.736,-2.352 -2.208,-2.352l-1.824,0l0,-0.48c3.04,-0.416 5.248,-1.44 6.624,-3.072l0.48,0l0,31.2c0,0.736 0.256,1.344 0.768,1.824c0.512,0.512 1.136,0.768 1.872,0.768l1.008,0l0,0.48zm21.54,-29.952l-11.28,0.72l-2.208,7.584c4.224,-1.056 7.792,-0.768 10.704,0.864c3.104,1.728 4.576,4.592 4.416,8.592c-0.224,5.088 -2.768,8.912 -7.632,11.472c-1.824,0.96 -3.776,1.632 -5.856,2.016c-1.824,0.32 -3.296,0.384 -4.416,0.192l0.096,-0.48c2.624,0.064 5.424,-0.96 8.4,-3.072c3.584,-2.56 5.52,-5.808 5.808,-9.744c0.224,-3.232 -0.992,-5.52 -3.648,-6.864c-2.656,-1.312 -5.952,-1.312 -9.888,0l-0.432,-0.192l3.744,-13.008l9.504,-0.72c1.728,0 2.992,-0.8 3.792,-2.4l0.48,0l-1.584,5.04z"/>
  <path id="svg_30" fill="#707968" d="m664.952,458l-10.416,0l0.048,-0.48l1.008,0c0.704,0 1.312,-0.256 1.824,-0.768c0.544,-0.512 0.816,-1.12 0.816,-1.824l0,-25.296c0,-1.568 -0.736,-2.352 -2.208,-2.352l-1.824,0l0,-0.48c3.04,-0.416 5.248,-1.44 6.624,-3.072l0.48,0l0,31.2c0,0.736 0.256,1.344 0.768,1.824c0.512,0.512 1.136,0.768 1.872,0.768l1.008,0l0,0.48zm11.46,-15.552c1.248,-1.504 2.736,-2.576 4.464,-3.216c1.696,-0.64 3.344,-0.784 4.944,-0.432c1.728,0.384 3.12,1.28 4.176,2.688c1.216,1.568 1.904,3.616 2.064,6.144c0.192,2.912 -0.624,5.44 -2.448,7.584c-1.952,2.304 -4.496,3.472 -7.632,3.504c-3.296,0.064 -5.952,-1.12 -7.968,-3.552c-2.112,-2.528 -3.136,-5.936 -3.072,-10.224c0.064,-5.472 1.392,-10.24 3.984,-14.304c2.944,-4.64 6.992,-7.264 12.144,-7.872l0.192,0.336c-4.352,1.376 -7.616,4.144 -9.792,8.304c-1.952,3.712 -2.928,8.224 -2.928,13.536c0,3.744 0.624,6.704 1.872,8.88c1.312,2.304 3.168,3.456 5.568,3.456c2.144,0 3.808,-0.928 4.992,-2.784c1.024,-1.632 1.52,-3.696 1.488,-6.192c-0.032,-2.432 -0.608,-4.352 -1.728,-5.76c-1.152,-1.44 -2.736,-2.16 -4.752,-2.16c-2.272,0.032 -4.032,0.864 -5.28,2.496l-0.288,-0.432z"/>
  <path id="svg_31" fill="#707968" d="m787.335,457l-10.416,0l0.048,-0.48l1.008,0c0.704,0 1.312,-0.256 1.824,-0.768c0.544,-0.512 0.816,-1.12 0.816,-1.824l0,-25.296c0,-1.568 -0.736,-2.352 -2.208,-2.352l-1.824,0l0,-0.48c3.04,-0.416 5.248,-1.44 6.624,-3.072l0.48,0l0,31.2c0,0.736 0.256,1.344 0.768,1.824c0.512,0.512 1.136,0.768 1.872,0.768l1.008,0l0,0.48zm4.548,-28.08l1.344,-5.424l19.2,0l-5.184,13.824c-0.352,0.96 -0.8,2.176 -1.344,3.648c-0.64,1.856 -1.264,3.648 -1.872,5.376c-1.6,4.8 -2.672,8.352 -3.216,10.656l-3.36,0c0.576,-1.44 1.168,-2.912 1.776,-4.416c0.736,-1.888 1.44,-3.68 2.112,-5.376c1.728,-4.384 3.04,-7.744 3.936,-10.08l4.224,-11.088l-13.536,0c-1.696,0 -2.896,0.96 -3.6,2.88l-0.48,0z"/>
  <path id="svg_32" fill="#707968" d="m34.936,120.062l0,-0.541l1.5089,0c1.1841,0 1.9752,-0.188 2.3682,-0.563c0.3877,-0.385 0.5867,-0.989 0.5867,-1.812l0,-26.2502c0,-0.9687 -0.2252,-1.6041 -0.6706,-1.8958c-0.4505,-0.3021 -1.2102,-0.4583 -2.2843,-0.4583l-10.2898,0c-0.9955,0 -1.7185,0.1354 -2.1795,0.3958c-0.4611,0.2656 -0.6916,0.9167 -0.6916,1.9583l0,26.2502c0,0.823 0.1676,1.427 0.503,1.812c0.3457,0.375 1.1212,0.563 2.3262,0.563l1.6346,0l0,0.541l-12.658,0l0,-0.541l1.5089,0c1.1841,0 1.97,-0.188 2.3472,-0.563c0.3772,-0.385 0.5658,-0.989 0.5658,-1.812l0,-26.2085c0,-0.4167 -0.0366,-0.776 -0.1047,-1.0833c-0.0577,-0.3177 -0.1834,-0.5677 -0.3773,-0.75c-0.1991,-0.1927 -0.4924,-0.3334 -0.8801,-0.4167c-0.3773,-0.0937 -0.896,-0.1458 -1.5509,-0.1458l-1.5089,0l0,-0.5417l32.5461,0l0,0.5417l-1.5089,0c-0.9797,0 -1.7132,0.1354 -2.2005,0.3958c-0.4925,0.2656 -0.7335,0.9063 -0.7335,1.9167l0,26.2918c0,0.823 0.1991,1.427 0.6078,1.812c0.4191,0.375 1.1945,0.563 2.3262,0.563l1.5089,0l0,0.541l-12.6999,0z"/>
  <path id="svg_33" fill="#707968" d="m73.3717,120.062l0,-0.541l1.5089,0c1.1316,0 1.907,-0.156 2.3262,-0.479c0.4191,-0.318 0.6287,-0.948 0.6287,-1.896l0,-13.396l-17.8343,0l0,13.396c0,0.974 0.1991,1.614 0.6077,1.916c0.4191,0.308 1.1526,0.459 2.2005,0.459l1.6346,0l0,0.541l-12.6999,0l0,-0.541l1.5089,0c1.1317,0 1.9071,-0.156 2.3263,-0.479c0.4191,-0.318 0.6287,-0.948 0.6287,-1.896l0,-26.2085c0,-0.8594 -0.2096,-1.4687 -0.6287,-1.8333c-0.4192,-0.375 -1.1946,-0.5625 -2.3263,-0.5625l-1.5089,0l0,-0.5417l12.6999,0l0,0.5417l-1.6346,0c-1.0479,0 -1.7814,0.1614 -2.2005,0.4791c-0.4086,0.3073 -0.6077,0.948 -0.6077,1.9167l0,12.2705l17.8343,0l0,-12.2705c0,-0.9427 -0.2096,-1.5729 -0.6287,-1.8958c-0.4192,-0.3334 -1.1946,-0.5 -2.3262,-0.5l-1.5089,0l0,-0.5417l12.6998,0l0,0.5417l-1.6346,0c-1.0478,0 -1.7813,0.1614 -2.2005,0.4791c-0.4086,0.3073 -0.6077,0.948 -0.6077,1.9167l0,26.2085c0,0.974 0.1991,1.614 0.6077,1.916c0.4192,0.308 1.1527,0.459 2.2005,0.459l1.6346,0l0,0.541l-12.6998,0z"/>
  <path id="svg_34" fill="#707968" d="m162.479,95.0833c0,-1.5677 -0.336,-2.8177 -1.006,-3.75c-0.671,-0.9271 -1.467,-1.6354 -2.389,-2.125c-0.922,-0.4843 -1.866,-0.8021 -2.83,-0.9583c-0.964,-0.151 -1.734,-0.2292 -2.305,-0.2292c-0.953,0 -1.97,0.1146 -3.06,0.3334c-1.079,0.2239 -2.001,0.5 -2.766,0.8333l0,12.6245l6.371,0c0.21,0 0.55,-0.01 1.027,-0.041c0.471,-0.026 1.006,-0.104 1.593,-0.229c0.597,-0.136 1.205,-0.344 1.823,-0.625c0.629,-0.292 1.2,-0.688 1.718,-1.1878c0.53,-0.5 0.964,-1.125 1.3,-1.875c0.345,-0.7604 0.524,-1.6875 0.524,-2.7709zm1.11,15.2087c0,-0.651 -0.115,-1.438 -0.335,-2.354c-0.225,-0.917 -0.686,-1.782 -1.383,-2.605c-0.702,-0.833 -1.713,-1.531 -3.039,-2.104c-1.315,-0.583 -3.091,-0.875 -5.323,-0.875l-5.386,0l0,15.458c0.404,0.282 0.88,0.521 1.425,0.73c0.556,0.198 1.121,0.364 1.698,0.5c0.587,0.125 1.158,0.229 1.718,0.312c0.571,0.073 1.079,0.104 1.53,0.104c0.865,0 1.823,-0.13 2.871,-0.396c1.058,-0.26 2.054,-0.739 2.976,-1.437c0.922,-0.693 1.687,-1.63 2.305,-2.813c0.629,-1.177 0.943,-2.687 0.943,-4.52zm-19.301,-19.6462c0,-0.9166 -0.283,-1.5416 -0.838,-1.875c-0.545,-0.3437 -1.237,-0.5208 -2.075,-0.5208l-1.551,0l0,-0.5417l7.44,0c1.257,-0.026 2.578,-0.0677 3.961,-0.125c1.383,-0.0521 2.724,-0.0833 4.023,-0.0833c2.08,0 3.825,0.1823 5.24,0.5417c1.409,0.3489 2.546,0.8333 3.416,1.4583c0.864,0.6146 1.488,1.3333 1.865,2.1667c0.388,0.8229 0.587,1.7083 0.587,2.6666c0,1.9479 -0.692,3.6198 -2.075,5.0209c-1.383,1.4058 -3.369,2.3278 -5.952,2.7708c1.284,0.182 2.494,0.495 3.626,0.937c1.142,0.448 2.143,1.016 2.997,1.709c0.848,0.698 1.529,1.521 2.032,2.479c0.503,0.958 0.755,2.031 0.755,3.208c0,1.542 -0.288,2.907 -0.859,4.084c-0.561,1.182 -1.357,2.182 -2.39,3c-1.021,0.807 -2.242,1.416 -3.667,1.833c-1.425,0.417 -2.997,0.625 -4.715,0.625c-0.996,0 -1.897,-0.021 -2.704,-0.062c-0.796,-0.032 -1.592,-0.058 -2.389,-0.084c-0.77,-0.031 -1.545,-0.052 -2.326,-0.062c-0.77,-0.016 -1.587,-0.021 -2.452,-0.021l-6.413,0l0,-0.542l1.551,0c1.184,0 1.97,-0.167 2.347,-0.5c0.377,-0.333 0.566,-0.958 0.566,-1.875l0,-26.2082z"/>
  <path id="svg_35" fill="#707968" d="m199.003,87.7083l0.482,7.1458l-0.524,0l-0.419,-3.4167c-0.744,-1.2604 -1.902,-2.1094 -3.479,-2.5416c-1.567,-0.4271 -3.427,-0.6459 -5.575,-0.6459c-0.56,0 -1.016,0.0521 -1.362,0.1459c-0.335,0.0833 -0.597,0.1979 -0.775,0.3333c-0.168,0.125 -0.289,0.2812 -0.357,0.4583c-0.057,0.1667 -0.084,0.3438 -0.084,0.5209l0,27.1457c0,0.406 0.027,0.766 0.084,1.083c0.068,0.308 0.199,0.558 0.398,0.75c0.21,0.198 0.514,0.334 0.923,0.417c0.403,0.083 0.932,0.125 1.592,0.125l1.467,0l0,0.542l-12.721,0l0,-0.542l1.572,0c1.184,0 1.96,-0.167 2.326,-0.5c0.378,-0.333 0.566,-0.958 0.566,-1.875l0,-27.1041c0,-0.375 -0.141,-0.7135 -0.419,-1.0208c-0.283,-0.3177 -0.985,-0.4792 -2.117,-0.4792c-1.105,0 -2.116,0.0417 -3.038,0.125c-0.922,0.0729 -1.761,0.224 -2.515,0.4584c-0.755,0.2395 -1.425,0.5625 -2.012,0.9791c-0.576,0.4063 -1.043,0.9479 -1.404,1.625l0,-0.0416l-0.44,3.4583l-0.545,0l0.398,-7.1458l27.978,0z"/>
  <path id="svg_36" fill="#707968" d="m293.229,119.771l0.084,-1.688c-0.854,0.5 -1.797,0.907 -2.829,1.209c-1.022,0.291 -2.022,0.51 -2.997,0.666c-0.964,0.167 -1.86,0.276 -2.682,0.334c-0.812,0.067 -1.436,0.104 -1.865,0.104c-2.741,0 -5.135,-0.406 -7.189,-1.208c-2.053,-0.818 -3.761,-1.948 -5.113,-3.396c-1.357,-1.459 -2.379,-3.188 -3.06,-5.188c-0.67,-2.01 -1.006,-4.198 -1.006,-6.562c0,-1.875 0.262,-3.802 0.797,-5.792c0.529,-2 1.435,-3.8333 2.724,-5.5c1.299,-1.6667 3.018,-3.0417 5.155,-4.125c2.149,-1.0833 4.81,-1.625 7.985,-1.625c1.394,0 2.871,0.1667 4.422,0.5c1.551,0.3229 3.379,0.9375 5.491,1.8542l-0.042,-1.6459l0.524,0l0.586,8.0834l-0.544,0l-0.252,-2.0417c-0.451,-0.8333 -1.001,-1.625 -1.656,-2.375c-0.66,-0.75 -1.435,-1.401 -2.326,-1.9583c-0.896,-0.5677 -1.907,-1.0209 -3.039,-1.3542c-1.121,-0.3437 -2.389,-0.5208 -3.814,-0.5208c-2.085,0 -3.871,0.4479 -5.365,1.3333c-1.482,0.8906 -2.714,2.0833 -3.688,3.5833c-0.964,1.4896 -1.677,3.2188 -2.138,5.1875c-0.461,1.9584 -0.691,4.0002 -0.691,6.1252c0,2.781 0.335,5.182 1.006,7.208c0.67,2.016 1.571,3.682 2.703,5c1.132,1.323 2.431,2.302 3.898,2.938c1.478,0.625 3.023,0.937 4.632,0.937c1.184,0 2.352,-0.135 3.499,-0.416c1.143,-0.277 2.19,-0.646 3.144,-1.105c0.948,-0.458 1.781,-1.005 2.494,-1.645c0.712,-0.636 1.242,-1.313 1.593,-2.021l0.586,-2.646l0.587,0l-1.069,7.75l-0.545,0z"/>
  <path id="svg_37" fill="#707968" d="m325.376,96.7084c0,1.3333 -0.272,2.6198 -0.817,3.8546c-0.545,1.224 -1.357,2.307 -2.431,3.25c-1.079,0.947 -2.405,1.703 -3.982,2.27c-1.566,0.558 -3.374,0.834 -5.428,0.834c-0.812,0 -1.671,-0.026 -2.577,-0.084c-0.896,-0.067 -1.818,-0.218 -2.767,-0.458l0,10.479c0,0.948 0.168,1.578 0.503,1.896c0.346,0.323 1.116,0.479 2.305,0.479l1.635,0l0,0.542l-12.7,0l0,-0.542l1.551,0c1.184,0 1.97,-0.166 2.347,-0.5c0.377,-0.333 0.566,-0.958 0.566,-1.875l0,-26.2081c0,-0.9427 -0.199,-1.5729 -0.587,-1.8958c-0.393,-0.3334 -1.168,-0.5 -2.326,-0.5l-1.551,0l0,-0.5417l4.862,0c1.425,-0.026 2.966,-0.1094 4.632,-0.25c1.66,-0.151 3.175,-0.2292 4.547,-0.2292c2.347,0 4.307,0.2917 5.889,0.875c1.577,0.573 2.835,1.3073 3.772,2.2084c0.933,0.9062 1.593,1.9271 1.97,3.0625c0.388,1.1406 0.587,2.25 0.587,3.3333zm-4.149,0c0,-2.9427 -0.77,-5.1667 -2.306,-6.6667c-1.524,-1.5104 -3.683,-2.2708 -6.475,-2.2708c-0.828,0 -1.672,0.1042 -2.536,0.3125c-0.87,0.1979 -1.713,0.5 -2.536,0.9167l0,16.8959c0.949,0.239 1.85,0.375 2.704,0.417c0.864,0.041 1.681,0.062 2.452,0.062c2.598,0 4.694,-0.818 6.287,-2.458c1.603,-1.636 2.41,-4.0419 2.41,-7.2086z"/>
  <path id="svg_38" fill="#707968" d="m407.192,120.062l0,-0.541l1.865,0c1.216,0 1.991,-0.209 2.326,-0.625c0.346,-0.427 0.524,-1.011 0.524,-1.75l0,-12.646c-1.508,0.948 -3.18,1.724 -5.008,2.333c-1.834,0.599 -3.773,0.896 -5.826,0.896c-1.483,0 -2.693,-0.213 -3.626,-0.646c-0.938,-0.442 -1.676,-1.021 -2.221,-1.729c-0.535,-0.719 -0.901,-1.505 -1.111,-2.354c-0.21,-0.859 -0.314,-1.719 -0.314,-2.583l0,-9.4795c0,-0.9427 -0.199,-1.5729 -0.587,-1.8958c-0.377,-0.3334 -1.163,-0.5 -2.347,-0.5l-1.572,0l0,-0.5417l12.532,0l0,0.5417l-1.383,0c-1.189,0 -1.965,0.1875 -2.326,0.5625c-0.351,0.3646 -0.524,0.9739 -0.524,1.8333l0,10.0625c0,0.656 0.052,1.323 0.168,2c0.125,0.682 0.366,1.292 0.733,1.833c0.377,0.542 0.906,0.99 1.593,1.334c0.681,0.333 1.577,0.5 2.682,0.5c1.603,0 3.186,-0.271 4.736,-0.813c1.562,-0.542 3.029,-1.229 4.401,-2.062l0,-12.8545c0,-0.9167 -0.204,-1.5417 -0.607,-1.875c-0.393,-0.3437 -1.142,-0.5208 -2.243,-0.5208l-1.383,0l0,-0.5417l12.49,0l0,0.5417l-1.613,0c-0.587,0 -1.069,0.0416 -1.446,0.125c-0.377,0.0729 -0.671,0.2031 -0.88,0.3958c-0.2,0.1823 -0.336,0.4323 -0.42,0.75c-0.073,0.3073 -0.104,0.6823 -0.104,1.125l0,26.2085c0,0.765 0.157,1.354 0.482,1.771c0.335,0.406 1.121,0.604 2.368,0.604l1.613,0l0,0.541l-12.972,0z"/>
  <path id="svg_39" fill="#707968" d="m451.024,88l0.482,7.1458l-0.524,0l-0.419,-3.4166c-0.744,-1.2604 -1.902,-2.1094 -3.479,-2.5417c-1.566,-0.4271 -3.426,-0.6458 -5.574,-0.6458c-0.561,0 -1.017,0.0521 -1.363,0.1458c-0.335,0.0833 -0.597,0.1979 -0.775,0.3333c-0.168,0.125 -0.288,0.2813 -0.356,0.4584c-0.058,0.1666 -0.084,0.3437 -0.084,0.5208l0,27.146c0,0.406 0.026,0.765 0.084,1.083c0.068,0.307 0.199,0.557 0.398,0.75c0.21,0.198 0.513,0.333 0.922,0.417c0.403,0.083 0.933,0.125 1.593,0.125l1.467,0l0,0.541l-12.721,0l0,-0.541l1.572,0c1.184,0 1.959,-0.167 2.326,-0.5c0.377,-0.333 0.566,-0.959 0.566,-1.875l0,-27.1043c0,-0.375 -0.142,-0.7136 -0.419,-1.0209c-0.283,-0.3177 -0.985,-0.4791 -2.117,-0.4791c-1.106,0 -2.117,0.0416 -3.039,0.125c-0.922,0.0729 -1.76,0.2239 -2.515,0.4583c-0.754,0.2396 -1.425,0.5625 -2.011,0.9792c-0.577,0.4062 -1.043,0.9479 -1.405,1.625l0,-0.0417l-0.44,3.4583l-0.545,0l0.399,-7.1458l27.977,0z"/>
  <path id="svg_40" fill="#707968" d="m534.883,120.062l0,-0.541l1.509,0c1.184,0 1.975,-0.188 2.368,-0.563c0.388,-0.385 0.587,-0.989 0.587,-1.812l0,-26.2502c0,-0.9687 -0.225,-1.6041 -0.671,-1.8958c-0.45,-0.3021 -1.21,-0.4583 -2.284,-0.4583l-10.29,0c-0.995,0 -1.718,0.1354 -2.179,0.3958c-0.461,0.2656 -0.692,0.9167 -0.692,1.9583l0,26.2502c0,0.823 0.168,1.427 0.503,1.812c0.346,0.375 1.121,0.563 2.326,0.563l1.635,0l0,0.541l-12.658,0l0,-0.541l1.509,0c1.184,0 1.97,-0.188 2.347,-0.563c0.377,-0.385 0.566,-0.989 0.566,-1.812l0,-26.2085c0,-0.4167 -0.037,-0.776 -0.105,-1.0833c-0.057,-0.3177 -0.183,-0.5677 -0.377,-0.75c-0.199,-0.1927 -0.492,-0.3334 -0.88,-0.4167c-0.377,-0.0937 -0.896,-0.1458 -1.551,-0.1458l-1.509,0l0,-0.5417l32.546,0l0,0.5417l-1.509,0c-0.979,0 -1.713,0.1354 -2.2,0.3958c-0.493,0.2656 -0.734,0.9063 -0.734,1.9167l0,26.2918c0,0.823 0.199,1.427 0.608,1.812c0.419,0.375 1.195,0.563 2.326,0.563l1.509,0l0,0.541l-12.7,0z"/>
  <path id="svg_41" fill="#707968" d="m578.452,88l0.482,7.1458l-0.524,0l-0.419,-3.4166c-0.744,-1.2604 -1.902,-2.1094 -3.479,-2.5417c-1.567,-0.4271 -3.427,-0.6458 -5.575,-0.6458c-0.56,0 -1.016,0.0521 -1.362,0.1458c-0.335,0.0833 -0.597,0.1979 -0.775,0.3333c-0.168,0.125 -0.288,0.2813 -0.356,0.4584c-0.058,0.1666 -0.084,0.3437 -0.084,0.5208l0,27.146c0,0.406 0.026,0.765 0.084,1.083c0.068,0.307 0.199,0.557 0.398,0.75c0.209,0.198 0.513,0.333 0.922,0.417c0.403,0.083 0.932,0.125 1.593,0.125l1.467,0l0,0.541l-12.721,0l0,-0.541l1.571,0c1.184,0 1.96,-0.167 2.327,-0.5c0.377,-0.333 0.565,-0.959 0.565,-1.875l0,-27.1043c0,-0.375 -0.141,-0.7136 -0.419,-1.0209c-0.283,-0.3177 -0.985,-0.4791 -2.116,-0.4791c-1.106,0 -2.117,0.0416 -3.039,0.125c-0.922,0.0729 -1.76,0.2239 -2.515,0.4583c-0.754,0.2396 -1.425,0.5625 -2.012,0.9792c-0.576,0.4062 -1.042,0.9479 -1.404,1.625l0,-0.0417l-0.44,3.4583l-0.545,0l0.398,-7.1458l27.978,0z"/>
  <path id="svg_42" fill="#707968" d="m669.446,119.771l0.084,-1.688c-0.854,0.5 -1.797,0.907 -2.829,1.209c-1.022,0.291 -2.022,0.51 -2.997,0.666c-0.964,0.167 -1.86,0.276 -2.682,0.334c-0.813,0.067 -1.436,0.104 -1.866,0.104c-2.74,0 -5.134,-0.406 -7.188,-1.208c-2.054,-0.818 -3.762,-1.948 -5.113,-3.396c-1.357,-1.459 -2.379,-3.188 -3.06,-5.188c-0.671,-2.01 -1.006,-4.198 -1.006,-6.562c0,-1.875 0.262,-3.802 0.796,-5.792c0.53,-2 1.436,-3.8333 2.725,-5.5c1.299,-1.6667 3.018,-3.0417 5.155,-4.125c2.148,-1.0833 4.81,-1.625 7.985,-1.625c1.393,0 2.871,0.1667 4.422,0.5c1.551,0.3229 3.379,0.9375 5.49,1.8542l-0.042,-1.6459l0.524,0l0.587,8.0834l-0.545,0l-0.251,-2.0417c-0.451,-0.8333 -1.001,-1.625 -1.656,-2.375c-0.66,-0.75 -1.435,-1.401 -2.326,-1.9583c-0.896,-0.5677 -1.907,-1.0209 -3.039,-1.3542c-1.121,-0.3437 -2.389,-0.5208 -3.814,-0.5208c-2.085,0 -3.872,0.4479 -5.365,1.3333c-1.483,0.8906 -2.714,2.0833 -3.688,3.5833c-0.964,1.4896 -1.677,3.2188 -2.138,5.1875c-0.461,1.9584 -0.691,4.0002 -0.691,6.1252c0,2.781 0.335,5.182 1.006,7.208c0.67,2.016 1.571,3.682 2.703,5c1.132,1.323 2.431,2.302 3.898,2.938c1.477,0.625 3.023,0.937 4.631,0.937c1.184,0 2.353,-0.135 3.5,-0.416c1.142,-0.277 2.19,-0.646 3.144,-1.105c0.948,-0.458 1.781,-1.005 2.494,-1.645c0.712,-0.636 1.241,-1.313 1.592,-2.021l0.587,-2.646l0.587,0l-1.069,7.75l-0.545,0z"/>
  <path id="svg_43" fill="#707968" d="m679.796,90.6458c0,-1.0678 -0.283,-1.7344 -0.838,-2c-0.545,-0.2605 -1.237,-0.3959 -2.075,-0.3959l-1.551,0l0,-0.5416l24.981,0l0.398,6.7083l-0.545,0l-0.482,-3.6458c-0.335,-0.4167 -0.849,-0.7761 -1.53,-1.0834c-0.686,-0.3021 -1.509,-0.5677 -2.473,-0.7916c-0.964,-0.2188 -2.043,-0.3803 -3.227,-0.4792c-1.189,-0.1094 -2.442,-0.1667 -3.751,-0.1667c-1.038,0 -1.881,0.0313 -2.536,0.0834c-0.66,0.0572 -1.184,0.177 -1.572,0.3541c-0.377,0.1823 -0.644,0.4375 -0.796,0.7709c-0.142,0.3229 -0.21,0.7291 -0.21,1.2291l0,10.5416c0.948,-0.318 1.975,-0.588 3.081,-0.812c1.116,-0.219 2.389,-0.334 3.814,-0.334c2.441,0 4.469,0.271 6.077,0.813c1.604,0.531 2.882,1.239 3.835,2.125c0.949,0.875 1.614,1.885 1.991,3.021c0.388,1.14 0.587,2.323 0.587,3.541c0,1.157 -0.209,2.349 -0.629,3.584c-0.408,1.239 -1.126,2.364 -2.158,3.375c-1.022,1 -2.384,1.828 -4.087,2.479c-1.692,0.656 -3.814,0.979 -6.371,0.979c-0.476,0 -1.021,-0.021 -1.634,-0.063c-0.603,-0.031 -1.216,-0.057 -1.844,-0.083c-0.619,-0.031 -1.216,-0.052 -1.803,-0.062c-0.576,-0.016 -1.1,-0.021 -1.571,-0.021l-7.545,0l0,-0.542l1.551,0c0.948,0 1.666,-0.177 2.158,-0.542c0.503,-0.375 0.755,-0.984 0.755,-1.833l0,-26.2082zm19.029,19.1042c0,-3.068 -0.791,-5.339 -2.368,-6.813c-1.567,-1.484 -3.867,-2.229 -6.895,-2.229c-0.839,0 -1.803,0.084 -2.892,0.25c-1.08,0.157 -2.106,0.438 -3.081,0.854l0,16.417c0.849,0.474 1.823,0.802 2.913,0.979c1.09,0.167 2.106,0.25 3.06,0.25c1.325,0 2.557,-0.218 3.688,-0.666c1.132,-0.443 2.106,-1.084 2.934,-1.917c0.838,-0.844 1.488,-1.865 1.949,-3.063c0.461,-1.192 0.692,-2.546 0.692,-4.062z"/>
  <path id="svg_44" fill="#707968" d="m791.186,95.0833c0,-1.5677 -0.336,-2.8177 -1.006,-3.75c-0.671,-0.9271 -1.467,-1.6354 -2.389,-2.125c-0.922,-0.4843 -1.866,-0.8021 -2.83,-0.9583c-0.964,-0.151 -1.734,-0.2292 -2.305,-0.2292c-0.953,0 -1.97,0.1146 -3.06,0.3334c-1.079,0.2239 -2.001,0.5 -2.766,0.8333l0,12.6245l6.371,0c0.21,0 0.55,-0.01 1.027,-0.041c0.472,-0.026 1.006,-0.104 1.593,-0.229c0.597,-0.136 1.205,-0.344 1.823,-0.625c0.629,-0.292 1.2,-0.688 1.718,-1.1878c0.53,-0.5 0.964,-1.125 1.3,-1.875c0.346,-0.7604 0.524,-1.6875 0.524,-2.7709zm1.11,15.2087c0,-0.651 -0.115,-1.438 -0.335,-2.354c-0.225,-0.917 -0.686,-1.782 -1.383,-2.605c-0.702,-0.833 -1.713,-1.531 -3.039,-2.104c-1.315,-0.583 -3.091,-0.875 -5.323,-0.875l-5.386,0l0,15.458c0.404,0.282 0.88,0.521 1.425,0.73c0.556,0.198 1.121,0.364 1.698,0.5c0.587,0.125 1.158,0.229 1.718,0.312c0.571,0.073 1.08,0.104 1.53,0.104c0.865,0 1.823,-0.13 2.871,-0.396c1.059,-0.26 2.054,-0.739 2.976,-1.437c0.922,-0.693 1.687,-1.63 2.305,-2.813c0.629,-1.177 0.943,-2.687 0.943,-4.52zm-19.301,-19.6462c0,-0.9166 -0.283,-1.5416 -0.838,-1.875c-0.545,-0.3437 -1.237,-0.5208 -2.075,-0.5208l-1.551,0l0,-0.5417l7.44,0c1.257,-0.026 2.578,-0.0677 3.961,-0.125c1.383,-0.0521 2.724,-0.0833 4.024,-0.0833c2.08,0 3.824,0.1823 5.239,0.5417c1.409,0.3489 2.546,0.8333 3.416,1.4583c0.864,0.6146 1.488,1.3333 1.865,2.1667c0.388,0.8229 0.587,1.7083 0.587,2.6666c0,1.9479 -0.692,3.6198 -2.075,5.0209c-1.383,1.4058 -3.369,2.3278 -5.952,2.7708c1.284,0.182 2.494,0.495 3.626,0.937c1.142,0.448 2.143,1.016 2.997,1.709c0.848,0.698 1.529,1.521 2.032,2.479c0.503,0.958 0.755,2.031 0.755,3.208c0,1.542 -0.288,2.907 -0.859,4.084c-0.561,1.182 -1.357,2.182 -2.389,3c-1.022,0.807 -2.243,1.416 -3.668,1.833c-1.425,0.417 -2.997,0.625 -4.715,0.625c-0.996,0 -1.897,-0.021 -2.704,-0.062c-0.796,-0.032 -1.592,-0.058 -2.389,-0.084c-0.77,-0.031 -1.545,-0.052 -2.326,-0.062c-0.77,-0.016 -1.587,-0.021 -2.452,-0.021l-6.413,0l0,-0.542l1.551,0c1.184,0 1.97,-0.167 2.347,-0.5c0.377,-0.333 0.566,-0.958 0.566,-1.875l0,-26.2082z"/>
  <path id="svg_45" fill="#707968" d="m828.192,119.771l0.084,-1.688c-0.854,0.5 -1.797,0.907 -2.829,1.209c-1.022,0.291 -2.022,0.51 -2.997,0.666c-0.964,0.167 -1.86,0.276 -2.682,0.334c-0.812,0.067 -1.436,0.104 -1.866,0.104c-2.74,0 -5.134,-0.406 -7.188,-1.208c-2.053,-0.818 -3.761,-1.948 -5.113,-3.396c-1.357,-1.459 -2.379,-3.188 -3.06,-5.188c-0.671,-2.01 -1.006,-4.198 -1.006,-6.562c0,-1.875 0.262,-3.802 0.797,-5.792c0.529,-2 1.435,-3.8333 2.724,-5.5c1.299,-1.6667 3.018,-3.0417 5.155,-4.125c2.148,-1.0833 4.81,-1.625 7.985,-1.625c1.394,0 2.871,0.1667 4.422,0.5c1.551,0.3229 3.379,0.9375 5.491,1.8542l-0.042,-1.6459l0.524,0l0.586,8.0834l-0.545,0l-0.251,-2.0417c-0.451,-0.8333 -1.001,-1.625 -1.656,-2.375c-0.66,-0.75 -1.435,-1.401 -2.326,-1.9583c-0.896,-0.5677 -1.907,-1.0209 -3.039,-1.3542c-1.121,-0.3437 -2.389,-0.5208 -3.814,-0.5208c-2.085,0 -3.872,0.4479 -5.365,1.3333c-1.482,0.8906 -2.714,2.0833 -3.688,3.5833c-0.964,1.4896 -1.677,3.2188 -2.138,5.1875c-0.461,1.9584 -0.691,4.0002 -0.691,6.1252c0,2.781 0.335,5.182 1.006,7.208c0.67,2.016 1.571,3.682 2.703,5c1.132,1.323 2.431,2.302 3.898,2.938c1.477,0.625 3.023,0.937 4.631,0.937c1.185,0 2.353,-0.135 3.5,-0.416c1.142,-0.277 2.19,-0.646 3.144,-1.105c0.948,-0.458 1.781,-1.005 2.494,-1.645c0.712,-0.636 1.241,-1.313 1.592,-2.021l0.587,-2.646l0.587,0l-1.069,7.75l-0.545,0z"/>
 </g>
</svg>