<?xml version="1.0"?>
<svg width="848" height="731" xmlns="http://www.w3.org/2000/svg" xmlns:svg="http://www.w3.org/2000/svg">
 <g class="layer">
  <title>Layer 1</title>
  <path d="m32.14,580l-10.42,0l0.05,-0.48l1.01,0c0.7,0 1.31,-0.26 1.82,-0.77c0.55,-0.51 0.82,-1.12 0.82,-1.82l0,-25.3c0,-1.57 -0.74,-2.35 -2.21,-2.35l-1.82,0l0,-0.48c3.04,-0.42 5.25,-1.44 6.62,-3.07l0.48,0l0,31.2c0,0.73 0.26,1.34 0.77,1.82c0.51,0.51 1.14,0.77 1.87,0.77l1.01,0l0,0.48zm18.8,-17.9c2.34,1.15 4.05,2.27 5.14,3.36c1.66,1.69 2.5,3.74 2.5,6.14c0,2.69 -0.95,4.86 -2.84,6.53c-1.88,1.69 -4.4,2.54 -7.53,2.54c-3.17,0 -5.71,-0.86 -7.63,-2.59c-1.96,-1.73 -2.87,-3.98 -2.74,-6.77c0.16,-3.84 2.46,-6.8 6.91,-8.88c-3.45,-2.49 -5.18,-5.39 -5.18,-8.69c0,-2.3 0.77,-4.19 2.3,-5.66c1.57,-1.54 3.68,-2.32 6.34,-2.35c2.53,-0.07 4.59,0.62 6.19,2.06c1.63,1.51 2.45,3.52 2.45,6.05c0,4.06 -1.97,6.82 -5.91,8.26zm-1.77,-0.87c2.72,-2.01 4.08,-4.61 4.08,-7.77c0,-1.92 -0.45,-3.46 -1.35,-4.61c-0.89,-1.12 -2.11,-1.68 -3.64,-1.68c-1.57,0 -2.84,0.59 -3.8,1.77c-0.86,1.12 -1.29,2.52 -1.29,4.18c0,3.14 1.65,5.65 4.94,7.54l1.06,0.57zm-0.91,18c2.17,0 3.87,-0.72 5.08,-2.16c1.09,-1.28 1.64,-2.88 1.64,-4.8c0,-2.14 -0.79,-3.89 -2.36,-5.23c-0.6,-0.48 -1.37,-0.98 -2.3,-1.49l-1.2,-0.62l-1.15,-0.58c-0.64,-0.32 -1.23,-0.65 -1.78,-1.01c-3.13,2.15 -4.72,4.96 -4.75,8.45c-0.03,2.27 0.56,4.08 1.78,5.43c1.21,1.34 2.89,2.01 5.04,2.01z" fill="#780505" id="svg_1"/>
  <path d="m156.95,580l-10.41,0l0.04,-0.48l1.01,0c0.71,0 1.31,-0.26 1.83,-0.77c0.54,-0.51 0.81,-1.12 0.81,-1.82l0,-25.3c0,-1.57 -0.73,-2.35 -2.21,-2.35l-1.82,0l0,-0.48c3.04,-0.42 5.25,-1.44 6.62,-3.07l0.48,0l0,31.2c0,0.73 0.26,1.34 0.77,1.82c0.51,0.51 1.14,0.77 1.87,0.77l1.01,0l0,0.48zm21.16,-17.9c-1.19,1.5 -2.66,2.57 -4.42,3.21c-1.73,0.61 -3.42,0.72 -5.09,0.34c-1.72,-0.45 -3.13,-1.36 -4.22,-2.74c-1.18,-1.57 -1.81,-3.57 -1.87,-6c-0.1,-3.33 0.81,-6.01 2.73,-8.06c1.89,-1.95 4.34,-2.96 7.35,-3.03c3.36,-0.06 6.01,1.12 7.97,3.56c2.01,2.46 3.02,5.88 3.02,10.27c0,5.37 -1.3,10.14 -3.89,14.3c-3.01,4.77 -7.09,7.38 -12.24,7.83l-0.14,-0.34c4.25,-1.18 7.5,-3.89 9.74,-8.11c1.95,-3.75 2.93,-8.21 2.93,-13.39c0,-3.97 -0.61,-7.06 -1.82,-9.27c-1.28,-2.27 -3.14,-3.41 -5.57,-3.41c-2.18,0 -3.84,0.9 -4.99,2.69c-1.06,1.63 -1.56,3.73 -1.49,6.29c0.06,2.4 0.64,4.32 1.73,5.76c1.15,1.47 2.73,2.19 4.75,2.16c2.27,-0.06 4.03,-0.9 5.28,-2.5l0.24,0.44z" fill="#780505" id="svg_2"/>
  <path d="m19.15,676.32l-0.86,-5.47c0.92,-0.9 2.2,-1.65 3.84,-2.26c1.63,-0.57 3.21,-0.86 4.75,-0.86c3.2,0 5.74,0.85 7.63,2.54c1.92,1.7 2.88,4.02 2.88,6.96c0,3.52 -1.9,7.62 -5.71,12.29c-1.28,1.6 -2.91,3.41 -4.9,5.42l-1.2,1.2c-0.25,0.29 -0.62,0.68 -1.1,1.16c-0.96,0.92 -1.63,1.6 -2.02,2.01l11.04,0c1.38,0 2.47,-0.3 3.27,-0.91c0.7,-0.54 1.48,-1.6 2.35,-3.17l0.48,0l-2.31,6.77l-19.68,0l0,-0.48c1.6,-1.47 3.24,-3.1 4.9,-4.9c1.98,-2.14 3.74,-4.25 5.28,-6.33c4,-5.31 6,-9.6 6,-12.87c0,-2.59 -0.62,-4.62 -1.87,-6.09c-1.22,-1.47 -2.9,-2.19 -5.04,-2.16c-2.31,0.03 -4.08,0.65 -5.33,1.87c-1.34,1.25 -1.98,2.99 -1.92,5.23l-0.48,0.05zm40.83,-4.27l-11.28,0.72l-2.2,7.58c4.22,-1.05 7.79,-0.77 10.7,0.87c3.1,1.72 4.58,4.59 4.42,8.59c-0.23,5.09 -2.77,8.91 -7.64,11.47c-1.82,0.96 -3.77,1.63 -5.85,2.02c-1.83,0.32 -3.3,0.38 -4.42,0.19l0.1,-0.48c2.62,0.06 5.42,-0.96 8.4,-3.07c3.58,-2.56 5.52,-5.81 5.81,-9.75c0.22,-3.23 -1,-5.52 -3.65,-6.86c-2.66,-1.31 -5.95,-1.31 -9.89,0l-0.43,-0.19l3.74,-13.01l9.51,-0.72c1.72,0 2.99,-0.8 3.79,-2.4l0.48,0l-1.59,5.04z" fill="#780505" id="svg_3"/>
  <path d="m142.67,676.32l-0.86,-5.47c0.93,-0.9 2.21,-1.65 3.84,-2.26c1.63,-0.57 3.22,-0.86 4.75,-0.86c3.2,0 5.75,0.85 7.63,2.54c1.92,1.7 2.88,4.02 2.88,6.96c0,3.52 -1.9,7.62 -5.71,12.29c-1.28,1.6 -2.91,3.41 -4.89,5.42l-1.21,1.2c-0.25,0.29 -0.62,0.68 -1.1,1.16c-0.96,0.92 -1.63,1.6 -2.01,2.01l11.04,0c1.37,0 2.46,-0.3 3.26,-0.91c0.7,-0.54 1.49,-1.6 2.35,-3.17l0.48,0l-2.3,6.77l-19.68,0l0,-0.48c1.6,-1.47 3.23,-3.1 4.89,-4.9c1.99,-2.14 3.75,-4.25 5.28,-6.33c4,-5.31 6,-9.6 6,-12.87c0,-2.59 -0.62,-4.62 -1.87,-6.09c-1.22,-1.47 -2.9,-2.19 -5.04,-2.16c-2.3,0.03 -4.08,0.65 -5.33,1.87c-1.34,1.25 -1.98,2.99 -1.92,5.23l-0.48,0.05zm30.76,10.13c1.25,-1.51 2.73,-2.58 4.46,-3.22c1.7,-0.64 3.35,-0.78 4.95,-0.43c1.72,0.38 3.12,1.28 4.17,2.69c1.22,1.57 1.91,3.61 2.07,6.14c0.19,2.91 -0.63,5.44 -2.45,7.59c-1.95,2.3 -4.5,3.47 -7.63,3.5c-3.3,0.06 -5.96,-1.12 -7.97,-3.55c-2.11,-2.53 -3.14,-5.94 -3.07,-10.23c0.06,-5.47 1.39,-10.24 3.98,-14.3c2.94,-4.64 6.99,-7.26 12.14,-7.87l0.2,0.33c-4.36,1.38 -7.62,4.15 -9.8,8.31c-1.95,3.71 -2.92,8.22 -2.92,13.53c0,3.75 0.62,6.71 1.87,8.88c1.31,2.31 3.17,3.46 5.57,3.46c2.14,0 3.8,-0.93 4.99,-2.78c1.02,-1.64 1.52,-3.7 1.49,-6.2c-0.04,-2.43 -0.61,-4.35 -1.73,-5.76c-1.15,-1.44 -2.74,-2.16 -4.75,-2.16c-2.28,0.04 -4.04,0.87 -5.28,2.5l-0.29,-0.43z" fill="#780505" id="svg_4"/>
  <path d="m274.06,676.32l-0.87,-5.47c0.93,-0.9 2.21,-1.65 3.84,-2.26c1.63,-0.57 3.22,-0.86 4.75,-0.86c3.2,0 5.75,0.85 7.64,2.54c1.92,1.7 2.88,4.02 2.88,6.96c0,3.52 -1.91,7.62 -5.72,12.29c-1.28,1.6 -2.91,3.41 -4.89,5.42l-1.2,1.2c-0.26,0.29 -0.63,0.68 -1.11,1.16c-0.96,0.92 -1.63,1.6 -2.01,2.01l11.04,0c1.37,0 2.46,-0.3 3.26,-0.91c0.71,-0.54 1.49,-1.6 2.35,-3.17l0.48,0l-2.3,6.77l-19.68,0l0,-0.48c1.6,-1.47 3.23,-3.1 4.9,-4.9c1.98,-2.14 3.74,-4.25 5.28,-6.33c4,-5.31 6,-9.6 6,-12.87c0,-2.59 -0.63,-4.62 -1.88,-6.09c-1.21,-1.47 -2.89,-2.19 -5.04,-2.16c-2.3,0.03 -4.08,0.65 -5.32,1.87c-1.35,1.25 -1.99,2.99 -1.92,5.23l-0.48,0.05zm23.84,-2.4l1.34,-5.42l19.2,0l-5.18,13.82c-0.35,0.96 -0.8,2.18 -1.34,3.65c-0.65,1.85 -1.27,3.65 -1.88,5.37c-1.6,4.8 -2.67,8.36 -3.21,10.66l-3.36,0c0.57,-1.44 1.16,-2.91 1.77,-4.42c0.74,-1.88 1.44,-3.68 2.12,-5.37c1.72,-4.39 3.03,-7.75 3.93,-10.08l4.22,-11.09l-13.53,0c-1.7,0 -2.9,0.96 -3.6,2.88l-0.48,0z" fill="#780505" id="svg_5"/>
  <path d="m392.86,676.32l-0.86,-5.47c0.92,-0.9 2.2,-1.65 3.84,-2.26c1.63,-0.57 3.21,-0.86 4.75,-0.86c3.2,0 5.74,0.85 7.63,2.54c1.92,1.7 2.88,4.02 2.88,6.96c0,3.52 -1.9,7.62 -5.71,12.29c-1.28,1.6 -2.91,3.41 -4.9,5.42l-1.2,1.2c-0.25,0.29 -0.62,0.68 -1.1,1.16c-0.96,0.92 -1.63,1.6 -2.02,2.01l11.04,0c1.38,0 2.47,-0.3 3.27,-0.91c0.7,-0.54 1.48,-1.6 2.35,-3.17l0.48,0l-2.31,6.77l-19.68,0l0,-0.48c1.6,-1.47 3.24,-3.1 4.9,-4.9c1.98,-2.14 3.74,-4.25 5.28,-6.33c4,-5.31 6,-9.6 6,-12.87c0,-2.59 -0.62,-4.62 -1.87,-6.09c-1.22,-1.47 -2.9,-2.19 -5.04,-2.16c-2.31,0.03 -4.08,0.65 -5.33,1.87c-1.34,1.25 -1.98,2.99 -1.92,5.23l-0.48,0.05zm38.1,7.78c2.34,1.15 4.05,2.27 5.14,3.36c1.66,1.69 2.49,3.74 2.49,6.14c0,2.69 -0.94,4.86 -2.83,6.53c-1.89,1.69 -4.4,2.54 -7.54,2.54c-3.16,0 -5.71,-0.86 -7.63,-2.59c-1.95,-1.73 -2.86,-3.98 -2.73,-6.77c0.15,-3.84 2.46,-6.8 6.91,-8.88c-3.46,-2.49 -5.19,-5.39 -5.19,-8.69c0,-2.3 0.77,-4.19 2.31,-5.66c1.56,-1.54 3.68,-2.32 6.33,-2.35c2.53,-0.07 4.59,0.62 6.2,2.06c1.63,1.51 2.44,3.52 2.44,6.05c0,4.06 -1.97,6.82 -5.9,8.26zm-1.78,-0.87c2.72,-2.01 4.08,-4.61 4.08,-7.77c0,-1.92 -0.45,-3.46 -1.34,-4.61c-0.9,-1.12 -2.11,-1.68 -3.65,-1.68c-1.57,0 -2.83,0.59 -3.79,1.77c-0.86,1.12 -1.3,2.52 -1.3,4.18c0,3.14 1.65,5.65 4.95,7.54l1.05,0.57zm-0.91,18c2.18,0 3.87,-0.72 5.09,-2.16c1.09,-1.28 1.63,-2.88 1.63,-4.8c0,-2.14 -0.78,-3.89 -2.35,-5.23c-0.61,-0.48 -1.38,-0.98 -2.31,-1.49l-1.2,-0.62l-1.15,-0.58c-0.64,-0.32 -1.23,-0.65 -1.77,-1.01c-3.14,2.15 -4.72,4.96 -4.76,8.45c-0.03,2.27 0.56,4.08 1.78,5.43c1.22,1.34 2.9,2.01 5.04,2.01z" fill="#780505" id="svg_6"/>
  <path d="m522.67,676.32l-0.86,-5.47c0.93,-0.9 2.21,-1.65 3.84,-2.26c1.63,-0.57 3.22,-0.86 4.75,-0.86c3.2,0 5.74,0.85 7.63,2.54c1.92,1.7 2.88,4.02 2.88,6.96c0,3.52 -1.9,7.62 -5.71,12.29c-1.28,1.6 -2.91,3.41 -4.9,5.42l-1.19,1.2c-0.26,0.29 -0.63,0.68 -1.11,1.16c-0.96,0.92 -1.63,1.6 -2.01,2.01l11.03,0c1.38,0 2.47,-0.3 3.27,-0.91c0.7,-0.54 1.49,-1.6 2.35,-3.17l0.48,0l-2.3,6.77l-19.68,0l0,-0.48c1.6,-1.47 3.23,-3.1 4.89,-4.9c1.99,-2.14 3.75,-4.25 5.28,-6.33c4,-5.31 6,-9.6 6,-12.87c0,-2.59 -0.62,-4.62 -1.87,-6.09c-1.21,-1.47 -2.9,-2.19 -5.04,-2.16c-2.3,0.03 -4.08,0.65 -5.33,1.87c-1.34,1.25 -1.98,2.99 -1.92,5.23l-0.48,0.05zm40.45,7.78c-1.18,1.5 -2.65,2.57 -4.41,3.21c-1.73,0.61 -3.43,0.72 -5.09,0.34c-1.73,-0.45 -3.14,-1.36 -4.22,-2.74c-1.19,-1.57 -1.81,-3.57 -1.88,-6c-0.09,-3.33 0.82,-6.01 2.74,-8.06c1.89,-1.95 4.34,-2.96 7.34,-3.03c3.36,-0.06 6.02,1.12 7.97,3.56c2.02,2.46 3.03,5.88 3.03,10.27c0,5.37 -1.3,10.14 -3.89,14.3c-3.01,4.77 -7.09,7.38 -12.24,7.83l-0.15,-0.34c4.26,-1.18 7.51,-3.89 9.75,-8.11c1.95,-3.75 2.93,-8.21 2.93,-13.39c0,-3.97 -0.61,-7.06 -1.83,-9.27c-1.28,-2.27 -3.13,-3.41 -5.57,-3.41c-2.17,0 -3.84,0.9 -4.99,2.69c-1.05,1.63 -1.55,3.73 -1.49,6.29c0.07,2.4 0.64,4.32 1.73,5.76c1.15,1.47 2.74,2.19 4.75,2.16c2.28,-0.06 4.04,-0.9 5.28,-2.5l0.24,0.44z" fill="#780505" id="svg_7"/>
  <path d="m649.51,671.23c1.89,-2.11 4.39,-3.25 7.49,-3.41c2.82,-0.12 5.12,0.52 6.91,1.92c1.7,1.35 2.55,3.09 2.55,5.24c0,1.95 -0.71,3.74 -2.11,5.37c-1.35,1.57 -2.84,2.43 -4.47,2.59c2.05,0.36 3.76,1.25 5.14,2.69c1.57,1.6 2.35,3.6 2.35,6c0,3.81 -1.78,6.95 -5.33,9.41c-3.65,2.5 -7.84,3.33 -12.57,2.5l0.09,-0.48c3.87,0.09 7.2,-0.95 9.98,-3.12c2.82,-2.24 4.23,-5.06 4.23,-8.45c0,-2.63 -0.93,-4.63 -2.78,-6c-1.73,-1.28 -4.09,-1.92 -7.06,-1.92l0.09,-0.48c2.34,0 4.37,-0.72 6.1,-2.16c1.92,-1.57 2.82,-3.59 2.69,-6.05c-0.06,-1.57 -0.56,-2.86 -1.49,-3.89c-1.06,-1.15 -2.53,-1.73 -4.42,-1.73c-1.98,0 -3.52,0.6 -4.6,1.78c-1.09,1.18 -1.59,2.74 -1.49,4.66l-0.48,0l-0.82,-4.47zm35.57,-3.5c3.49,0 6.24,1.55 8.25,4.65c2.02,3.14 3.03,7.41 3.03,12.82c0,5.41 -1.01,9.68 -3.03,12.82c-2.01,3.1 -4.76,4.65 -8.25,4.65c-3.49,0 -6.24,-1.55 -8.26,-4.65c-2.02,-3.14 -3.02,-7.41 -3.02,-12.82c0,-5.41 1,-9.68 3.02,-12.82c2.02,-3.1 4.77,-4.65 8.26,-4.65zm0,1.44c-2.47,0 -4.4,1.42 -5.81,4.27c-1.41,2.88 -2.11,6.8 -2.11,11.76c0,4.96 0.7,8.88 2.11,11.76c1.41,2.85 3.34,4.27 5.81,4.27c2.46,0 4.4,-1.42 5.8,-4.27c1.41,-2.88 2.12,-6.8 2.12,-11.76c0,-4.96 -0.71,-8.88 -2.12,-11.76c-1.4,-2.85 -3.34,-4.27 -5.8,-4.27z" fill="#780505" id="svg_8"/>
  <path d="m397.85,556.32l-0.86,-5.47c0.93,-0.9 2.21,-1.65 3.84,-2.26c1.63,-0.57 3.21,-0.86 4.75,-0.86c3.2,0 5.74,0.85 7.63,2.54c1.92,1.7 2.88,4.02 2.88,6.96c0,3.52 -1.9,7.62 -5.71,12.29c-1.28,1.6 -2.91,3.41 -4.9,5.42l-1.2,1.2c-0.25,0.29 -0.62,0.68 -1.1,1.16c-0.96,0.92 -1.63,1.6 -2.02,2.01l11.04,0c1.38,0 2.47,-0.3 3.27,-0.91c0.7,-0.54 1.49,-1.6 2.35,-3.17l0.48,0l-2.3,6.77l-19.68,0l0,-0.48c1.6,-1.47 3.23,-3.1 4.89,-4.9c1.99,-2.14 3.75,-4.25 5.28,-6.33c4,-5.31 6,-9.6 6,-12.87c0,-2.59 -0.62,-4.62 -1.87,-6.09c-1.22,-1.47 -2.9,-2.19 -5.04,-2.16c-2.3,0.03 -4.08,0.65 -5.33,1.87c-1.34,1.25 -1.98,2.99 -1.92,5.23l-0.48,0.05zm35.8,25.68l-10.42,0l0.05,-0.48l1.01,0c0.7,0 1.31,-0.26 1.82,-0.77c0.55,-0.51 0.82,-1.12 0.82,-1.82l0,-25.3c0,-1.57 -0.74,-2.35 -2.21,-2.35l-1.82,0l0,-0.48c3.04,-0.42 5.24,-1.44 6.62,-3.07l0.48,0l0,31.2c0,0.73 0.26,1.34 0.77,1.82c0.51,0.51 1.13,0.77 1.87,0.77l1.01,0l0,0.48z" fill="#780505" id="svg_11"/>
  <path d="m522.84,556.32l-0.87,-5.47c0.93,-0.9 2.21,-1.65 3.84,-2.26c1.64,-0.57 3.22,-0.86 4.76,-0.86c3.19,0 5.74,0.85 7.63,2.54c1.92,1.7 2.88,4.02 2.88,6.96c0,3.52 -1.91,7.62 -5.71,12.29c-1.28,1.6 -2.92,3.41 -4.9,5.42l-1.2,1.2c-0.26,0.29 -0.63,0.68 -1.11,1.16c-0.95,0.92 -1.63,1.6 -2.01,2.01l11.04,0c1.38,0 2.46,-0.3 3.26,-0.91c0.71,-0.54 1.49,-1.6 2.35,-3.17l0.48,0l-2.3,6.77l-19.68,0l0,-0.48c1.6,-1.47 3.23,-3.1 4.9,-4.9c1.98,-2.14 3.74,-4.25 5.28,-6.33c4,-5.31 6,-9.6 6,-12.87c0,-2.59 -0.63,-4.62 -1.87,-6.09c-1.22,-1.47 -2.9,-2.19 -5.04,-2.16c-2.31,0.03 -4.08,0.65 -5.33,1.87c-1.35,1.25 -1.99,2.99 -1.92,5.23l-0.48,0.05zm26.53,0l-0.87,-5.47c0.93,-0.9 2.21,-1.65 3.84,-2.26c1.64,-0.57 3.22,-0.86 4.76,-0.86c3.2,0 5.74,0.85 7.63,2.54c1.92,1.7 2.88,4.02 2.88,6.96c0,3.52 -1.91,7.62 -5.71,12.29c-1.28,1.6 -2.92,3.41 -4.9,5.42l-1.2,1.2c-0.26,0.29 -0.62,0.68 -1.1,1.16c-0.96,0.92 -1.64,1.6 -2.02,2.01l11.04,0c1.38,0 2.46,-0.3 3.26,-0.91c0.71,-0.54 1.49,-1.6 2.36,-3.17l0.48,0l-2.31,6.77l-19.68,0l0,-0.48c1.6,-1.47 3.23,-3.1 4.9,-4.9c1.98,-2.14 3.74,-4.25 5.28,-6.33c4,-5.31 6,-9.6 6,-12.87c0,-2.59 -0.63,-4.62 -1.87,-6.09c-1.22,-1.47 -2.9,-2.19 -5.04,-2.16c-2.31,0.03 -4.08,0.65 -5.33,1.87c-1.35,1.25 -1.99,2.99 -1.92,5.23l-0.48,0.05z" fill="#780505" id="svg_12"/>
  <path d="m652.53,556.32l-0.86,-5.47c0.93,-0.9 2.21,-1.65 3.84,-2.26c1.63,-0.57 3.21,-0.86 4.75,-0.86c3.2,0 5.74,0.85 7.63,2.54c1.92,1.7 2.88,4.02 2.88,6.96c0,3.52 -1.9,7.62 -5.71,12.29c-1.28,1.6 -2.91,3.41 -4.9,5.42l-1.2,1.2c-0.25,0.29 -0.62,0.68 -1.1,1.16c-0.96,0.92 -1.63,1.6 -2.02,2.01l11.04,0c1.38,0 2.47,-0.3 3.27,-0.91c0.7,-0.54 1.49,-1.6 2.35,-3.17l0.48,0l-2.3,6.77l-19.68,0l0,-0.48c1.6,-1.47 3.23,-3.1 4.89,-4.9c1.99,-2.14 3.75,-4.25 5.28,-6.33c4,-5.31 6,-9.6 6,-12.87c0,-2.59 -0.62,-4.62 -1.87,-6.09c-1.22,-1.47 -2.9,-2.19 -5.04,-2.16c-2.3,0.03 -4.08,0.65 -5.33,1.87c-1.34,1.25 -1.98,2.99 -1.92,5.23l-0.48,0.05zm25.05,-5.09c1.88,-2.11 4.38,-3.25 7.48,-3.41c2.82,-0.12 5.12,0.52 6.92,1.92c1.69,1.35 2.54,3.09 2.54,5.24c0,1.95 -0.7,3.74 -2.11,5.37c-1.35,1.57 -2.83,2.43 -4.47,2.59c2.05,0.36 3.76,1.25 5.14,2.69c1.57,1.6 2.35,3.6 2.35,6c0,3.81 -1.78,6.95 -5.33,9.41c-3.64,2.5 -7.84,3.33 -12.57,2.5l0.09,-0.48c3.88,0.09 7.2,-0.95 9.99,-3.12c2.81,-2.24 4.22,-5.06 4.22,-8.45c0,-2.63 -0.93,-4.63 -2.78,-6c-1.73,-1.28 -4.08,-1.92 -7.06,-1.92l0.1,-0.48c2.33,0 4.37,-0.72 6.09,-2.16c1.92,-1.57 2.82,-3.59 2.69,-6.05c-0.06,-1.57 -0.56,-2.86 -1.49,-3.89c-1.05,-1.15 -2.52,-1.73 -4.41,-1.73c-1.99,0 -3.52,0.6 -4.61,1.78c-1.09,1.18 -1.59,2.74 -1.49,4.66l-0.48,0l-0.81,-4.47z" fill="#780505" id="svg_13"/>
  <path d="m771.11,554.32l-0.86,-5.47c0.92,-0.9 2.2,-1.65 3.84,-2.26c1.63,-0.57 3.21,-0.86 4.75,-0.86c3.2,0 5.74,0.85 7.63,2.54c1.92,1.7 2.88,4.02 2.88,6.96c0,3.52 -1.9,7.62 -5.71,12.29c-1.28,1.6 -2.91,3.41 -4.9,5.42l-1.2,1.2c-0.25,0.29 -0.62,0.68 -1.1,1.16c-0.96,0.92 -1.63,1.6 -2.02,2.01l11.04,0c1.38,0 2.47,-0.3 3.27,-0.91c0.7,-0.54 1.48,-1.6 2.35,-3.17l0.48,0l-2.31,6.77l-19.68,0l0,-0.48c1.6,-1.47 3.24,-3.1 4.9,-4.9c1.98,-2.14 3.74,-4.25 5.28,-6.33c4,-5.31 6,-9.6 6,-12.87c0,-2.59 -0.62,-4.62 -1.87,-6.09c-1.22,-1.47 -2.9,-2.19 -5.04,-2.16c-2.31,0.03 -4.08,0.65 -5.33,1.87c-1.34,1.25 -1.98,2.99 -1.92,5.23l-0.48,0.05zm42.13,13.73l0,8.93c0,0.7 0.26,1.29 0.77,1.77c0.51,0.51 1.13,0.77 1.87,0.77l0.53,0l0,0.48l-9.51,0l0.05,-0.48l0.48,0c0.74,0 1.36,-0.24 1.87,-0.72c0.52,-0.48 0.79,-1.07 0.82,-1.78l0,-8.97l-14.93,0l0,-0.48l17.57,-21.84l0.48,0l0,19.68l2.06,0c1.22,0 2.1,-0.32 2.65,-0.96l0.47,0l-1,3.6l-4.18,0zm-3.12,-2.64l0,-14.02l-11.33,14.02l11.33,0z" fill="#780505" id="svg_14"/>
  <path d="m550.38,213l-10.41,0l0.04,-0.48l1.01,0c0.71,0 1.31,-0.26 1.83,-0.77c0.54,-0.51 0.81,-1.12 0.81,-1.82l0,-25.3c0,-1.57 -0.73,-2.35 -2.21,-2.35l-1.82,0l0,-0.48c3.04,-0.42 5.25,-1.44 6.62,-3.07l0.48,0l0,31.2c0,0.73 0.26,1.34 0.77,1.82c0.51,0.51 1.14,0.77 1.87,0.77l1.01,0l0,0.48z" fill="#780505" id="svg_15"/>
  <path d="m658.09,186.47l-0.98,-5.65c1.05,-0.92 2.51,-1.7 4.36,-2.33c1.86,-0.6 3.65,-0.9 5.4,-0.9c3.64,0 6.52,0.87 8.66,2.63c2.18,1.75 3.27,4.15 3.27,7.19c0,3.64 -2.16,7.87 -6.48,12.69c-1.45,1.65 -3.31,3.52 -5.57,5.61l-1.36,1.24c-0.29,0.3 -0.7,0.69 -1.25,1.18c-1.09,0.96 -1.86,1.65 -2.3,2.09l12.54,0c1.57,0 2.8,-0.32 3.71,-0.94c0.8,-0.56 1.69,-1.65 2.67,-3.27l0.55,0l-2.62,6.99l-22.36,0l0,-0.5c1.82,-1.52 3.67,-3.21 5.56,-5.06c2.26,-2.22 4.26,-4.4 6,-6.55c4.54,-5.49 6.82,-9.92 6.82,-13.29c0,-2.68 -0.7,-4.78 -2.12,-6.3c-1.39,-1.52 -3.29,-2.27 -5.73,-2.23c-2.62,0.03 -4.64,0.68 -6.06,1.94c-1.52,1.29 -2.25,3.09 -2.18,5.41l-0.55,0.05z" fill="#780505" id="svg_16"/>
  <path d="m784.81,182.23c1.89,-2.11 4.38,-3.25 7.49,-3.41c2.81,-0.12 5.12,0.52 6.91,1.92c1.7,1.35 2.54,3.09 2.54,5.24c0,1.95 -0.7,3.74 -2.11,5.37c-1.34,1.57 -2.83,2.43 -4.46,2.59c2.05,0.36 3.76,1.25 5.13,2.69c1.57,1.6 2.36,3.6 2.36,6c0,3.81 -1.78,6.95 -5.33,9.41c-3.65,2.5 -7.84,3.33 -12.58,2.5l0.1,-0.48c3.87,0.09 7.2,-0.95 9.98,-3.12c2.82,-2.24 4.23,-5.06 4.23,-8.45c0,-2.63 -0.93,-4.63 -2.79,-6c-1.73,-1.28 -4.08,-1.92 -7.05,-1.92l0.09,-0.48c2.34,0 4.37,-0.72 6.1,-2.16c1.92,-1.57 2.81,-3.59 2.69,-6.05c-0.07,-1.57 -0.56,-2.86 -1.49,-3.89c-1.06,-1.15 -2.53,-1.73 -4.42,-1.73c-1.98,0 -3.52,0.6 -4.61,1.78c-1.08,1.18 -1.58,2.74 -1.48,4.66l-0.48,0l-0.82,-4.47z" fill="#780505" id="svg_17"/>
  <path d="m50.98,323.05l0,8.93c0,0.7 0.25,1.29 0.76,1.77c0.52,0.51 1.14,0.77 1.88,0.77l0.52,0l0,0.48l-9.5,0l0.05,-0.48l0.48,0c0.73,0 1.36,-0.24 1.87,-0.72c0.51,-0.48 0.78,-1.07 0.82,-1.78l0,-8.97l-14.93,0l0,-0.48l17.57,-21.84l0.48,0l0,19.68l2.06,0c1.22,0 2.1,-0.32 2.64,-0.96l0.48,0l-1.01,3.6l-4.17,0zm-3.12,-2.64l0,-14.02l-11.33,14.02l11.33,0z" fill="#780505" id="svg_18"/>
  <path d="m176.72,305.05l-11.28,0.72l-2.21,7.58c4.23,-1.05 7.79,-0.77 10.71,0.87c3.1,1.72 4.57,4.59 4.41,8.59c-0.22,5.09 -2.77,8.91 -7.63,11.47c-1.82,0.96 -3.78,1.63 -5.86,2.02c-1.82,0.32 -3.29,0.38 -4.41,0.19l0.09,-0.48c2.63,0.06 5.43,-0.96 8.4,-3.07c3.59,-2.56 5.52,-5.81 5.81,-9.75c0.22,-3.23 -0.99,-5.52 -3.65,-6.86c-2.65,-1.31 -5.95,-1.31 -9.88,0l-0.44,-0.19l3.75,-13.01l9.5,-0.72c1.73,0 2.99,-0.8 3.79,-2.4l0.48,0l-1.58,5.04z" fill="#780505" id="svg_19"/>
  <path d="m290.16,319.45c1.25,-1.51 2.74,-2.58 4.47,-3.22c1.69,-0.64 3.34,-0.78 4.94,-0.43c1.73,0.38 3.12,1.28 4.18,2.69c1.21,1.57 1.9,3.61 2.06,6.14c0.19,2.91 -0.62,5.44 -2.45,7.59c-1.95,2.3 -4.49,3.47 -7.63,3.5c-3.3,0.06 -5.95,-1.12 -7.97,-3.55c-2.11,-2.53 -3.13,-5.94 -3.07,-10.23c0.06,-5.47 1.39,-10.24 3.98,-14.3c2.95,-4.64 7,-7.26 12.15,-7.87l0.19,0.33c-4.35,1.38 -7.62,4.15 -9.79,8.31c-1.95,3.71 -2.93,8.22 -2.93,13.53c0,3.75 0.62,6.71 1.87,8.88c1.31,2.31 3.17,3.46 5.57,3.46c2.14,0 3.81,-0.93 4.99,-2.78c1.03,-1.64 1.52,-3.7 1.49,-6.2c-0.03,-2.43 -0.61,-4.35 -1.73,-5.76c-1.15,-1.44 -2.73,-2.16 -4.75,-2.16c-2.27,0.04 -4.03,0.87 -5.28,2.5l-0.29,-0.43z" fill="#780505" id="svg_20"/>
  <path d="m409.63,306.92l1.35,-5.42l19.2,0l-5.19,13.82c-0.35,0.96 -0.8,2.18 -1.34,3.65c-0.64,1.85 -1.27,3.65 -1.87,5.37c-1.6,4.8 -2.67,8.36 -3.22,10.66l-3.36,0c0.58,-1.44 1.17,-2.91 1.78,-4.42c0.73,-1.88 1.44,-3.68 2.11,-5.37c1.73,-4.39 3.04,-7.75 3.93,-10.08l4.23,-11.09l-13.54,0c-1.69,0 -2.89,0.96 -3.6,2.88l-0.48,0z" fill="#780505" id="svg_21"/>
  <path d="m547.69,317.1c2.34,1.15 4.05,2.27 5.14,3.36c1.66,1.69 2.5,3.74 2.5,6.14c0,2.69 -0.95,4.86 -2.84,6.53c-1.88,1.69 -4.4,2.54 -7.53,2.54c-3.17,0 -5.71,-0.86 -7.63,-2.59c-1.96,-1.73 -2.87,-3.98 -2.74,-6.77c0.16,-3.84 2.46,-6.8 6.91,-8.88c-3.45,-2.49 -5.18,-5.39 -5.18,-8.69c0,-2.3 0.77,-4.19 2.3,-5.66c1.57,-1.54 3.68,-2.32 6.34,-2.35c2.53,-0.07 4.59,0.62 6.19,2.06c1.63,1.51 2.45,3.52 2.45,6.05c0,4.06 -1.97,6.82 -5.91,8.26zm-1.77,-0.87c2.72,-2.01 4.08,-4.61 4.08,-7.77c0,-1.92 -0.45,-3.46 -1.35,-4.61c-0.89,-1.12 -2.11,-1.68 -3.64,-1.68c-1.57,0 -2.84,0.59 -3.8,1.77c-0.86,1.12 -1.29,2.52 -1.29,4.18c0,3.14 1.65,5.65 4.94,7.54l1.06,0.57zm-0.91,18c2.17,0 3.87,-0.72 5.08,-2.16c1.09,-1.28 1.64,-2.88 1.64,-4.8c0,-2.14 -0.79,-3.89 -2.36,-5.23c-0.6,-0.48 -1.37,-0.98 -2.3,-1.49l-1.2,-0.62l-1.15,-0.58c-0.64,-0.32 -1.23,-0.65 -1.78,-1.01c-3.13,2.15 -4.72,4.96 -4.75,8.45c-0.03,2.27 0.56,4.08 1.78,5.43c1.21,1.34 2.89,2.01 5.04,2.01z" fill="#780505" id="svg_22"/>
  <path d="m677.86,317.1c-1.19,1.5 -2.66,2.57 -4.42,3.21c-1.73,0.61 -3.42,0.72 -5.09,0.34c-1.72,-0.45 -3.13,-1.36 -4.22,-2.74c-1.18,-1.57 -1.81,-3.57 -1.87,-6c-0.1,-3.33 0.81,-6.01 2.73,-8.06c1.89,-1.95 4.34,-2.96 7.35,-3.03c3.36,-0.06 6.01,1.12 7.97,3.56c2.01,2.46 3.02,5.88 3.02,10.27c0,5.37 -1.3,10.14 -3.89,14.3c-3.01,4.77 -7.09,7.38 -12.24,7.83l-0.14,-0.34c4.25,-1.18 7.5,-3.89 9.74,-8.11c1.95,-3.75 2.93,-8.21 2.93,-13.39c0,-3.97 -0.61,-7.06 -1.82,-9.27c-1.28,-2.27 -3.14,-3.41 -5.57,-3.41c-2.18,0 -3.84,0.9 -4.99,2.69c-1.06,1.63 -1.56,3.73 -1.49,6.29c0.06,2.4 0.64,4.32 1.73,5.76c1.15,1.47 2.73,2.19 4.75,2.16c2.27,-0.06 4.03,-0.9 5.28,-2.5l0.24,0.44z" fill="#780505" id="svg_23"/>
  <path d="m785.09,335l-10.42,0l0.05,-0.48l1.01,0c0.7,0 1.31,-0.26 1.82,-0.77c0.54,-0.51 0.82,-1.12 0.82,-1.82l0,-25.3c0,-1.57 -0.74,-2.35 -2.21,-2.35l-1.83,0l0,-0.48c3.04,-0.42 5.25,-1.44 6.63,-3.07l0.48,0l0,31.2c0,0.73 0.25,1.34 0.77,1.82c0.51,0.51 1.13,0.77 1.87,0.77l1.01,0l0,0.48zm17.17,-34.27c3.49,0 6.24,1.55 8.25,4.65c2.02,3.14 3.03,7.41 3.03,12.82c0,5.41 -1.01,9.68 -3.03,12.82c-2.01,3.1 -4.76,4.65 -8.25,4.65c-3.49,0 -6.24,-1.55 -8.26,-4.65c-2.01,-3.14 -3.02,-7.41 -3.02,-12.82c0,-5.41 1.01,-9.68 3.02,-12.82c2.02,-3.1 4.77,-4.65 8.26,-4.65zm0,1.44c-2.47,0 -4.4,1.42 -5.81,4.27c-1.41,2.88 -2.11,6.8 -2.11,11.76c0,4.96 0.7,8.88 2.11,11.76c1.41,2.85 3.34,4.27 5.81,4.27c2.46,0 4.4,-1.42 5.81,-4.27c1.4,-2.88 2.11,-6.8 2.11,-11.76c0,-4.96 -0.71,-8.88 -2.11,-11.76c-1.41,-2.85 -3.35,-4.27 -5.81,-4.27z" fill="#780505" id="svg_24"/>
  <path d="m45.13,457l-10.41,0l0.04,-0.48l1.01,0c0.71,0 1.31,-0.26 1.83,-0.77c0.54,-0.51 0.81,-1.12 0.81,-1.82l0,-25.3c0,-1.57 -0.73,-2.35 -2.21,-2.35l-1.82,0l0,-0.48c3.04,-0.42 5.25,-1.44 6.62,-3.07l0.48,0l0,31.2c0,0.73 0.26,1.34 0.77,1.82c0.51,0.51 1.14,0.77 1.87,0.77l1.01,0l0,0.48zm16.5,0l-10.41,0l0.04,-0.48l1.01,0c0.71,0 1.31,-0.26 1.83,-0.77c0.54,-0.51 0.81,-1.12 0.81,-1.82l0,-25.3c0,-1.57 -0.73,-2.35 -2.21,-2.35l-1.82,0l0,-0.48c3.04,-0.42 5.25,-1.44 6.62,-3.07l0.48,0l0,31.2c0,0.73 0.26,1.34 0.77,1.82c0.51,0.51 1.14,0.77 1.87,0.77l1.01,0l0,0.48z" fill="#780505" id="svg_25"/>
  <path d="m165.12,457l-10.42,0l0.05,-0.48l1.01,0c0.7,0 1.31,-0.26 1.82,-0.77c0.54,-0.51 0.82,-1.12 0.82,-1.82l0,-25.3c0,-1.57 -0.74,-2.35 -2.21,-2.35l-1.83,0l0,-0.48c3.04,-0.42 5.25,-1.44 6.63,-3.07l0.48,0l0,31.2c0,0.73 0.25,1.34 0.77,1.82c0.51,0.51 1.13,0.77 1.87,0.77l1.01,0l0,0.48zm7.23,-25.68l-0.86,-5.47c0.93,-0.9 2.21,-1.65 3.84,-2.26c1.63,-0.57 3.21,-0.86 4.75,-0.86c3.2,0 5.74,0.85 7.63,2.54c1.92,1.7 2.88,4.02 2.88,6.96c0,3.52 -1.9,7.62 -5.71,12.29c-1.28,1.6 -2.91,3.41 -4.9,5.42l-1.2,1.2c-0.25,0.29 -0.62,0.68 -1.1,1.16c-0.96,0.92 -1.63,1.6 -2.02,2.01l11.04,0c1.38,0 2.47,-0.3 3.27,-0.91c0.7,-0.54 1.49,-1.6 2.35,-3.17l0.48,0l-2.3,6.77l-19.68,0l0,-0.48c1.6,-1.47 3.23,-3.1 4.89,-4.9c1.99,-2.14 3.75,-4.25 5.28,-6.33c4,-5.31 6,-9.6 6,-12.87c0,-2.59 -0.62,-4.62 -1.87,-6.09c-1.22,-1.47 -2.9,-2.19 -5.04,-2.16c-2.3,0.03 -4.08,0.65 -5.33,1.87c-1.34,1.25 -1.98,2.99 -1.92,5.23l-0.48,0.05z" fill="#780505" id="svg_26"/>
  <path d="m291.31,458l-10.41,0l0.04,-0.48l1.01,0c0.71,0 1.31,-0.26 1.83,-0.77c0.54,-0.51 0.81,-1.12 0.81,-1.82l0,-25.3c0,-1.57 -0.73,-2.35 -2.21,-2.35l-1.82,0l0,-0.48c3.04,-0.42 5.25,-1.44 6.62,-3.07l0.48,0l0,31.2c0,0.73 0.26,1.34 0.77,1.82c0.51,0.51 1.14,0.77 1.87,0.77l1.01,0l0,0.48zm5.75,-30.77c1.89,-2.11 4.38,-3.25 7.49,-3.41c2.81,-0.12 5.12,0.52 6.91,1.92c1.7,1.35 2.54,3.09 2.54,5.24c0,1.95 -0.7,3.74 -2.11,5.37c-1.34,1.57 -2.83,2.43 -4.46,2.59c2.05,0.36 3.76,1.25 5.13,2.69c1.57,1.6 2.36,3.6 2.36,6c0,3.81 -1.78,6.95 -5.33,9.41c-3.65,2.5 -7.84,3.33 -12.58,2.5l0.1,-0.48c3.87,0.09 7.2,-0.95 9.98,-3.12c2.82,-2.24 4.23,-5.06 4.23,-8.45c0,-2.63 -0.93,-4.63 -2.79,-6c-1.73,-1.28 -4.08,-1.92 -7.05,-1.92l0.09,-0.48c2.34,0 4.37,-0.72 6.1,-2.16c1.92,-1.57 2.81,-3.59 2.69,-6.05c-0.07,-1.57 -0.56,-2.86 -1.49,-3.89c-1.06,-1.15 -2.53,-1.73 -4.42,-1.73c-1.98,0 -3.52,0.6 -4.61,1.78c-1.08,1.18 -1.58,2.74 -1.48,4.66l-0.48,0l-0.82,-4.47z" fill="#780505" id="svg_27"/>
  <path d="m414.39,458l-10.42,0l0.05,-0.48l1.01,0c0.7,0 1.31,-0.26 1.82,-0.77c0.55,-0.51 0.82,-1.12 0.82,-1.82l0,-25.3c0,-1.57 -0.74,-2.35 -2.21,-2.35l-1.82,0l0,-0.48c3.04,-0.42 5.25,-1.44 6.62,-3.07l0.48,0l0,31.2c0,0.73 0.26,1.34 0.77,1.82c0.51,0.51 1.14,0.77 1.87,0.77l1.01,0l0,0.48zm22.84,-11.95l0,8.93c0,0.7 0.25,1.29 0.76,1.77c0.52,0.51 1.14,0.77 1.88,0.77l0.52,0l0,0.48l-9.5,0l0.05,-0.48l0.48,0c0.73,0 1.36,-0.24 1.87,-0.72c0.51,-0.48 0.78,-1.07 0.82,-1.78l0,-8.97l-14.93,0l0,-0.48l17.57,-21.84l0.48,0l0,19.68l2.06,0c1.22,0 2.1,-0.32 2.64,-0.96l0.48,0l-1.01,3.6l-4.17,0zm-3.12,-2.64l0,-14.02l-11.33,14.02l11.33,0z" fill="#780505" id="svg_28"/>
  <path d="m541.43,457l-10.42,0l0.05,-0.48l1.01,0c0.7,0 1.31,-0.26 1.82,-0.77c0.55,-0.51 0.82,-1.12 0.82,-1.82l0,-25.3c0,-1.57 -0.74,-2.35 -2.21,-2.35l-1.82,0l0,-0.48c3.04,-0.42 5.24,-1.44 6.62,-3.07l0.48,0l0,31.2c0,0.73 0.26,1.34 0.77,1.82c0.51,0.51 1.13,0.77 1.87,0.77l1.01,0l0,0.48zm21.54,-29.95l-11.28,0.72l-2.21,7.58c4.23,-1.05 7.79,-0.77 10.7,0.87c3.11,1.72 4.58,4.59 4.42,8.59c-0.22,5.09 -2.77,8.91 -7.63,11.47c-1.83,0.96 -3.78,1.63 -5.86,2.02c-1.82,0.32 -3.29,0.38 -4.41,0.19l0.09,-0.48c2.63,0.06 5.43,-0.96 8.4,-3.07c3.59,-2.56 5.52,-5.81 5.81,-9.75c0.23,-3.23 -0.99,-5.52 -3.65,-6.86c-2.65,-1.31 -5.95,-1.31 -9.88,0l-0.44,-0.19l3.75,-13.01l9.5,-0.72c1.73,0 2.99,-0.8 3.79,-2.4l0.48,0l-1.58,5.04z" fill="#780505" id="svg_29"/>
  <path d="m664.95,458l-10.41,0l0.04,-0.48l1.01,0c0.71,0 1.31,-0.26 1.83,-0.77c0.54,-0.51 0.81,-1.12 0.81,-1.82l0,-25.3c0,-1.57 -0.73,-2.35 -2.21,-2.35l-1.82,0l0,-0.48c3.04,-0.42 5.25,-1.44 6.62,-3.07l0.48,0l0,31.2c0,0.73 0.26,1.34 0.77,1.82c0.51,0.51 1.14,0.77 1.87,0.77l1.01,0l0,0.48zm11.46,-15.55c1.25,-1.51 2.74,-2.58 4.47,-3.22c1.69,-0.64 3.34,-0.78 4.94,-0.43c1.73,0.38 3.12,1.28 4.18,2.69c1.21,1.57 1.9,3.61 2.06,6.14c0.19,2.91 -0.62,5.44 -2.45,7.59c-1.95,2.3 -4.49,3.47 -7.63,3.5c-3.3,0.06 -5.95,-1.12 -7.97,-3.55c-2.11,-2.53 -3.13,-5.94 -3.07,-10.23c0.06,-5.47 1.39,-10.24 3.98,-14.3c2.95,-4.64 7,-7.26 12.15,-7.87l0.19,0.33c-4.35,1.38 -7.62,4.15 -9.79,8.31c-1.95,3.71 -2.93,8.22 -2.93,13.53c0,3.75 0.62,6.71 1.87,8.88c1.31,2.31 3.17,3.46 5.57,3.46c2.14,0 3.81,-0.93 4.99,-2.78c1.03,-1.64 1.52,-3.7 1.49,-6.2c-0.03,-2.43 -0.61,-4.35 -1.73,-5.76c-1.15,-1.44 -2.73,-2.16 -4.75,-2.16c-2.27,0.04 -4.03,0.87 -5.28,2.5l-0.29,-0.43z" fill="#780505" id="svg_30"/>
  <path d="m787.34,457l-10.42,0l0.05,-0.48l1.01,0c0.7,0 1.31,-0.26 1.82,-0.77c0.54,-0.51 0.82,-1.12 0.82,-1.82l0,-25.3c0,-1.57 -0.74,-2.35 -2.21,-2.35l-1.83,0l0,-0.48c3.04,-0.42 5.25,-1.44 6.63,-3.07l0.48,0l0,31.2c0,0.73 0.25,1.34 0.77,1.82c0.51,0.51 1.13,0.77 1.87,0.77l1.01,0l0,0.48zm4.54,-28.08l1.35,-5.42l19.2,0l-5.19,13.82c-0.35,0.96 -0.8,2.18 -1.34,3.65c-0.64,1.85 -1.27,3.65 -1.87,5.37c-1.6,4.8 -2.67,8.36 -3.22,10.66l-3.36,0c0.58,-1.44 1.17,-2.91 1.78,-4.42c0.73,-1.88 1.44,-3.68 2.11,-5.37c1.73,-4.39 3.04,-7.75 3.93,-10.08l4.23,-11.09l-13.54,0c-1.69,0 -2.89,0.96 -3.6,2.88l-0.48,0z" fill="#780505" id="svg_31"/>
  <path d="m34.94,120.06l0,-0.54l1.5,0c1.19,0 1.98,-0.19 2.37,-0.56c0.39,-0.39 0.59,-0.99 0.59,-1.81l0,-26.25c0,-0.97 -0.23,-1.61 -0.67,-1.9c-0.45,-0.3 -1.21,-0.46 -2.29,-0.46l-10.28,0c-1,0 -1.72,0.14 -2.18,0.4c-0.47,0.26 -0.7,0.91 -0.7,1.96l0,26.25c0,0.82 0.17,1.42 0.51,1.81c0.34,0.37 1.12,0.56 2.32,0.56l1.64,0l0,0.54l-12.66,0l0,-0.54l1.51,0c1.18,0 1.97,-0.19 2.35,-0.56c0.37,-0.39 0.56,-0.99 0.56,-1.81l0,-26.21c0,-0.42 -0.03,-0.78 -0.1,-1.09c-0.06,-0.31 -0.19,-0.56 -0.38,-0.75c-0.2,-0.19 -0.49,-0.33 -0.88,-0.41c-0.38,-0.1 -0.9,-0.15 -1.55,-0.15l-1.51,0l0,-0.54l32.55,0l0,0.54l-1.51,0c-0.98,0 -1.72,0.14 -2.2,0.4c-0.5,0.26 -0.74,0.9 -0.74,1.91l0,26.3c0,0.82 0.2,1.42 0.61,1.81c0.42,0.37 1.2,0.56 2.33,0.56l1.51,0l0,0.54l-12.7,0z" fill="#780505" id="svg_32"/>
  <path d="m73.37,120.06l0,-0.54l1.51,0c1.13,0 1.91,-0.16 2.33,-0.48c0.42,-0.32 0.63,-0.95 0.63,-1.89l0,-13.4l-17.84,0l0,13.4c0,0.97 0.2,1.61 0.61,1.91c0.42,0.31 1.15,0.46 2.2,0.46l1.63,0l0,0.54l-12.7,0l0,-0.54l1.51,0c1.13,0 1.91,-0.16 2.33,-0.48c0.42,-0.32 0.63,-0.95 0.63,-1.89l0,-26.21c0,-0.86 -0.21,-1.47 -0.63,-1.84c-0.42,-0.37 -1.2,-0.56 -2.33,-0.56l-1.51,0l0,-0.54l12.7,0l0,0.54l-1.63,0c-1.05,0 -1.78,0.16 -2.2,0.48c-0.41,0.31 -0.61,0.95 -0.61,1.92l0,12.27l17.84,0l0,-12.27c0,-0.95 -0.21,-1.58 -0.63,-1.9c-0.42,-0.33 -1.2,-0.5 -2.33,-0.5l-1.51,0l0,-0.54l12.7,0l0,0.54l-1.63,0c-1.05,0 -1.78,0.16 -2.2,0.48c-0.41,0.31 -0.61,0.95 -0.61,1.92l0,26.21c0,0.97 0.2,1.61 0.61,1.91c0.42,0.31 1.15,0.46 2.2,0.46l1.63,0l0,0.54l-12.7,0z" fill="#780505" id="svg_33"/>
  <path d="m162.48,95.08c0,-1.56 -0.34,-2.81 -1.01,-3.75c-0.67,-0.92 -1.46,-1.63 -2.39,-2.12c-0.92,-0.49 -1.86,-0.8 -2.83,-0.96c-0.96,-0.15 -1.73,-0.23 -2.3,-0.23c-0.95,0 -1.97,0.12 -3.06,0.33c-1.08,0.23 -2,0.5 -2.77,0.84l0,12.62l6.37,0c0.21,0 0.55,-0.01 1.03,-0.04c0.47,-0.02 1.01,-0.1 1.59,-0.23c0.6,-0.13 1.21,-0.34 1.83,-0.62c0.63,-0.29 1.2,-0.69 1.72,-1.19c0.53,-0.5 0.96,-1.13 1.3,-1.88c0.34,-0.76 0.52,-1.68 0.52,-2.77zm1.11,15.21c0,-0.65 -0.12,-1.44 -0.34,-2.35c-0.22,-0.92 -0.68,-1.78 -1.38,-2.61c-0.7,-0.83 -1.71,-1.53 -3.04,-2.1c-1.31,-0.58 -3.09,-0.88 -5.32,-0.88l-5.39,0l0,15.46c0.41,0.28 0.88,0.52 1.43,0.73c0.55,0.2 1.12,0.37 1.7,0.5c0.58,0.13 1.15,0.23 1.71,0.31c0.57,0.08 1.08,0.11 1.53,0.11c0.87,0 1.83,-0.13 2.88,-0.4c1.05,-0.26 2.05,-0.74 2.97,-1.43c0.92,-0.7 1.69,-1.63 2.31,-2.82c0.63,-1.17 0.94,-2.68 0.94,-4.52zm-19.3,-19.64c0,-0.92 -0.29,-1.55 -0.84,-1.88c-0.54,-0.34 -1.24,-0.52 -2.07,-0.52l-1.56,0l0,-0.54l7.44,0c1.26,-0.03 2.58,-0.07 3.96,-0.13c1.39,-0.05 2.73,-0.08 4.03,-0.08c2.08,0 3.82,0.18 5.24,0.54c1.41,0.35 2.54,0.84 3.41,1.46c0.87,0.61 1.49,1.33 1.87,2.17c0.39,0.82 0.59,1.71 0.59,2.66c0,1.95 -0.7,3.62 -2.08,5.02c-1.38,1.41 -3.37,2.33 -5.95,2.78c1.28,0.18 2.49,0.49 3.63,0.93c1.14,0.45 2.14,1.02 2.99,1.71c0.85,0.7 1.53,1.52 2.03,2.48c0.51,0.96 0.76,2.03 0.76,3.21c0,1.54 -0.29,2.9 -0.86,4.08c-0.56,1.18 -1.36,2.18 -2.39,3c-1.02,0.81 -2.24,1.42 -3.67,1.84c-1.42,0.41 -2.99,0.62 -4.71,0.62c-1,0 -1.9,-0.02 -2.71,-0.06c-0.79,-0.03 -1.59,-0.06 -2.39,-0.09c-0.76,-0.03 -1.54,-0.05 -2.32,-0.06c-0.77,-0.01 -1.59,-0.02 -2.45,-0.02l-6.42,0l0,-0.54l1.56,0c1.18,0 1.96,-0.17 2.34,-0.5c0.38,-0.33 0.57,-0.96 0.57,-1.88l0,-26.2z" fill="#780505" id="svg_34"/>
  <path d="m199,87.71l0.49,7.14l-0.53,0l-0.42,-3.41c-0.74,-1.26 -1.9,-2.11 -3.48,-2.54c-1.56,-0.43 -3.42,-0.65 -5.57,-0.65c-0.56,0 -1.02,0.05 -1.36,0.15c-0.34,0.08 -0.6,0.19 -0.78,0.33c-0.17,0.12 -0.29,0.28 -0.36,0.46c-0.05,0.16 -0.08,0.34 -0.08,0.52l0,27.14c0,0.41 0.03,0.77 0.08,1.09c0.07,0.31 0.2,0.56 0.4,0.75c0.21,0.2 0.52,0.33 0.92,0.41c0.41,0.09 0.94,0.13 1.6,0.13l1.46,0l0,0.54l-12.72,0l0,-0.54l1.57,0c1.19,0 1.97,-0.17 2.33,-0.5c0.38,-0.33 0.57,-0.96 0.57,-1.88l0,-27.1c0,-0.38 -0.14,-0.71 -0.42,-1.02c-0.29,-0.32 -0.99,-0.48 -2.12,-0.48c-1.1,0 -2.11,0.04 -3.04,0.12c-0.92,0.08 -1.76,0.23 -2.51,0.46c-0.76,0.24 -1.43,0.57 -2.01,0.98c-0.58,0.41 -1.05,0.95 -1.41,1.63l0,-0.04l-0.44,3.45l-0.54,0l0.4,-7.14l27.97,0z" fill="#780505" id="svg_35"/>
  <path d="m293.23,119.77l0.08,-1.69c-0.85,0.5 -1.79,0.91 -2.83,1.21c-1.02,0.29 -2.02,0.51 -2.99,0.67c-0.97,0.17 -1.86,0.27 -2.68,0.33c-0.82,0.07 -1.44,0.11 -1.87,0.11c-2.74,0 -5.13,-0.41 -7.19,-1.21c-2.05,-0.82 -3.76,-1.95 -5.11,-3.4c-1.36,-1.46 -2.38,-3.19 -3.06,-5.19c-0.67,-2.01 -1.01,-4.19 -1.01,-6.56c0,-1.87 0.26,-3.8 0.8,-5.79c0.53,-2 1.43,-3.83 2.72,-5.5c1.3,-1.67 3.02,-3.04 5.16,-4.12c2.15,-1.09 4.81,-1.63 7.98,-1.63c1.4,0 2.87,0.17 4.42,0.5c1.56,0.32 3.38,0.94 5.5,1.85l-0.05,-1.64l0.53,0l0.58,8.08l-0.54,0l-0.25,-2.04c-0.45,-0.83 -1,-1.62 -1.66,-2.37c-0.66,-0.75 -1.43,-1.41 -2.32,-1.96c-0.9,-0.57 -1.91,-1.02 -3.04,-1.36c-1.12,-0.34 -2.39,-0.52 -3.82,-0.52c-2.08,0 -3.87,0.45 -5.36,1.34c-1.48,0.89 -2.72,2.08 -3.69,3.58c-0.96,1.49 -1.68,3.22 -2.14,5.19c-0.46,1.95 -0.69,4 -0.69,6.12c0,2.78 0.34,5.18 1.01,7.21c0.67,2.02 1.57,3.68 2.7,5c1.13,1.32 2.43,2.3 3.9,2.94c1.48,0.62 3.02,0.93 4.63,0.93c1.18,0 2.35,-0.13 3.5,-0.41c1.14,-0.28 2.19,-0.65 3.14,-1.11c0.95,-0.45 1.78,-1 2.5,-1.64c0.71,-0.64 1.24,-1.31 1.59,-2.02l0.59,-2.65l0.58,0l-1.07,7.75l-0.54,0z" fill="#780505" id="svg_36"/>
  <path d="m325.38,96.71c0,1.33 -0.28,2.62 -0.82,3.85c-0.55,1.23 -1.36,2.31 -2.43,3.25c-1.08,0.95 -2.41,1.71 -3.98,2.27c-1.57,0.56 -3.38,0.84 -5.43,0.84c-0.81,0 -1.67,-0.03 -2.58,-0.09c-0.89,-0.06 -1.82,-0.22 -2.77,-0.45l0,10.47c0,0.95 0.17,1.58 0.51,1.9c0.34,0.32 1.11,0.48 2.3,0.48l1.64,0l0,0.54l-12.7,0l0,-0.54l1.55,0c1.18,0 1.97,-0.17 2.34,-0.5c0.38,-0.33 0.57,-0.96 0.57,-1.88l0,-26.2c0,-0.95 -0.2,-1.58 -0.59,-1.9c-0.39,-0.33 -1.16,-0.5 -2.32,-0.5l-1.55,0l0,-0.54l4.86,0c1.42,-0.03 2.96,-0.11 4.63,-0.25c1.66,-0.15 3.18,-0.23 4.55,-0.23c2.34,0 4.3,0.29 5.89,0.87c1.57,0.58 2.83,1.31 3.77,2.21c0.93,0.91 1.59,1.93 1.97,3.07c0.39,1.14 0.59,2.25 0.59,3.33zm-4.15,0c0,-2.94 -0.77,-5.17 -2.31,-6.67c-1.52,-1.51 -3.68,-2.27 -6.47,-2.27c-0.83,0 -1.68,0.11 -2.54,0.31c-0.87,0.2 -1.71,0.5 -2.54,0.92l0,16.9c0.95,0.24 1.85,0.37 2.71,0.41c0.86,0.04 1.68,0.07 2.45,0.07c2.6,0 4.69,-0.82 6.29,-2.46c1.6,-1.64 2.41,-4.04 2.41,-7.21z" fill="#780505" id="svg_37"/>
  <path d="m407.19,120.06l0,-0.54l1.87,0c1.21,0 1.99,-0.21 2.32,-0.62c0.35,-0.43 0.53,-1.01 0.53,-1.75l0,-12.65c-1.51,0.95 -3.18,1.72 -5.01,2.33c-1.84,0.6 -3.77,0.9 -5.83,0.9c-1.48,0 -2.69,-0.21 -3.62,-0.65c-0.94,-0.44 -1.68,-1.02 -2.22,-1.73c-0.54,-0.71 -0.91,-1.5 -1.11,-2.35c-0.22,-0.86 -0.32,-1.72 -0.32,-2.58l0,-9.48c0,-0.95 -0.2,-1.58 -0.59,-1.9c-0.37,-0.33 -1.16,-0.5 -2.34,-0.5l-1.57,0l0,-0.54l12.53,0l0,0.54l-1.39,0c-1.19,0 -1.96,0.19 -2.32,0.56c-0.35,0.37 -0.53,0.98 -0.53,1.84l0,10.06c0,0.66 0.06,1.32 0.17,2c0.13,0.68 0.37,1.29 0.74,1.83c0.37,0.55 0.9,0.99 1.59,1.34c0.68,0.33 1.58,0.5 2.68,0.5c1.6,0 3.19,-0.27 4.74,-0.82c1.56,-0.54 3.03,-1.22 4.4,-2.06l0,-12.85c0,-0.92 -0.21,-1.54 -0.61,-1.88c-0.39,-0.34 -1.14,-0.52 -2.24,-0.52l-1.39,0l0,-0.54l12.49,0l0,0.54l-1.61,0c-0.59,0 -1.07,0.04 -1.44,0.13c-0.38,0.07 -0.68,0.2 -0.88,0.39c-0.21,0.18 -0.34,0.43 -0.42,0.75c-0.08,0.31 -0.11,0.68 -0.11,1.13l0,26.21c0,0.76 0.16,1.35 0.48,1.77c0.34,0.4 1.12,0.6 2.37,0.6l1.61,0l0,0.54l-12.97,0z" fill="#780505" id="svg_38"/>
  <path d="m451.02,88l0.49,7.15l-0.53,0l-0.42,-3.42c-0.74,-1.26 -1.9,-2.11 -3.48,-2.54c-1.56,-0.43 -3.42,-0.65 -5.57,-0.65c-0.56,0 -1.02,0.05 -1.36,0.15c-0.34,0.08 -0.6,0.2 -0.78,0.33c-0.17,0.13 -0.29,0.28 -0.35,0.46c-0.06,0.17 -0.09,0.34 -0.09,0.52l0,27.15c0,0.4 0.03,0.76 0.09,1.08c0.06,0.31 0.19,0.56 0.39,0.75c0.21,0.2 0.52,0.33 0.93,0.42c0.4,0.08 0.93,0.12 1.59,0.12l1.47,0l0,0.54l-12.72,0l0,-0.54l1.57,0c1.18,0 1.96,-0.17 2.32,-0.5c0.38,-0.33 0.57,-0.96 0.57,-1.87l0,-27.11c0,-0.37 -0.14,-0.71 -0.42,-1.02c-0.28,-0.32 -0.98,-0.48 -2.12,-0.48c-1.1,0 -2.11,0.04 -3.04,0.13c-0.92,0.07 -1.76,0.22 -2.51,0.46c-0.75,0.23 -1.43,0.56 -2.01,0.97c-0.58,0.41 -1.04,0.95 -1.41,1.63l0,-0.04l-0.44,3.46l-0.54,0l0.4,-7.15l27.97,0z" fill="#780505" id="svg_39"/>
  <path d="m534.88,120.06l0,-0.54l1.51,0c1.19,0 1.98,-0.19 2.37,-0.56c0.39,-0.39 0.59,-0.99 0.59,-1.81l0,-26.25c0,-0.97 -0.23,-1.61 -0.67,-1.9c-0.45,-0.3 -1.21,-0.46 -2.29,-0.46l-10.29,0c-0.99,0 -1.72,0.14 -2.18,0.4c-0.46,0.26 -0.69,0.91 -0.69,1.96l0,26.25c0,0.82 0.17,1.42 0.5,1.81c0.35,0.37 1.13,0.56 2.33,0.56l1.64,0l0,0.54l-12.66,0l0,-0.54l1.51,0c1.18,0 1.97,-0.19 2.34,-0.56c0.38,-0.39 0.57,-0.99 0.57,-1.81l0,-26.21c0,-0.42 -0.04,-0.78 -0.11,-1.09c-0.05,-0.31 -0.18,-0.56 -0.37,-0.75c-0.2,-0.19 -0.49,-0.33 -0.88,-0.41c-0.38,-0.1 -0.9,-0.15 -1.55,-0.15l-1.51,0l0,-0.54l32.54,0l0,0.54l-1.51,0c-0.97,0 -1.71,0.14 -2.2,0.4c-0.49,0.26 -0.73,0.9 -0.73,1.91l0,26.3c0,0.82 0.2,1.42 0.61,1.81c0.42,0.37 1.19,0.56 2.32,0.56l1.51,0l0,0.54l-12.7,0z" fill="#780505" id="svg_40"/>
  <path d="m578.45,88l0.48,7.15l-0.52,0l-0.42,-3.42c-0.74,-1.26 -1.9,-2.11 -3.48,-2.54c-1.56,-0.43 -3.42,-0.65 -5.57,-0.65c-0.56,0 -1.02,0.05 -1.36,0.15c-0.34,0.08 -0.6,0.2 -0.78,0.33c-0.17,0.13 -0.29,0.28 -0.36,0.46c-0.05,0.17 -0.08,0.34 -0.08,0.52l0,27.15c0,0.4 0.03,0.76 0.08,1.08c0.07,0.31 0.2,0.56 0.4,0.75c0.21,0.2 0.52,0.33 0.92,0.42c0.41,0.08 0.94,0.12 1.6,0.12l1.46,0l0,0.54l-12.72,0l0,-0.54l1.57,0c1.19,0 1.96,-0.17 2.33,-0.5c0.38,-0.33 0.57,-0.96 0.57,-1.87l0,-27.11c0,-0.37 -0.15,-0.71 -0.42,-1.02c-0.29,-0.32 -0.99,-0.48 -2.12,-0.48c-1.11,0 -2.12,0.04 -3.04,0.13c-0.92,0.07 -1.76,0.22 -2.51,0.46c-0.76,0.23 -1.43,0.56 -2.01,0.97c-0.58,0.41 -1.05,0.95 -1.41,1.63l0,-0.04l-0.44,3.46l-0.54,0l0.39,-7.15l27.98,0z" fill="#780505" id="svg_41"/>
  <path d="m669.45,119.77l0.08,-1.69c-0.85,0.5 -1.8,0.91 -2.83,1.21c-1.02,0.29 -2.02,0.51 -3,0.67c-0.96,0.17 -1.86,0.27 -2.68,0.33c-0.81,0.07 -1.43,0.11 -1.86,0.11c-2.74,0 -5.14,-0.41 -7.19,-1.21c-2.06,-0.82 -3.76,-1.95 -5.11,-3.4c-1.36,-1.46 -2.38,-3.19 -3.07,-5.19c-0.67,-2.01 -1,-4.19 -1,-6.56c0,-1.87 0.26,-3.8 0.8,-5.79c0.53,-2 1.43,-3.83 2.72,-5.5c1.3,-1.67 3.02,-3.04 5.16,-4.12c2.14,-1.09 4.8,-1.63 7.98,-1.63c1.39,0 2.87,0.17 4.42,0.5c1.55,0.32 3.38,0.94 5.49,1.85l-0.04,-1.64l0.52,0l0.59,8.08l-0.54,0l-0.26,-2.04c-0.45,-0.83 -1,-1.62 -1.65,-2.37c-0.66,-0.75 -1.44,-1.41 -2.33,-1.96c-0.89,-0.57 -1.9,-1.02 -3.04,-1.36c-1.12,-0.34 -2.38,-0.52 -3.81,-0.52c-2.08,0 -3.87,0.45 -5.37,1.34c-1.48,0.89 -2.71,2.08 -3.68,3.58c-0.97,1.49 -1.68,3.22 -2.14,5.19c-0.46,1.95 -0.69,4 -0.69,6.12c0,2.78 0.33,5.18 1,7.21c0.67,2.02 1.58,3.68 2.71,5c1.13,1.32 2.43,2.3 3.89,2.94c1.48,0.62 3.03,0.93 4.64,0.93c1.18,0 2.35,-0.13 3.5,-0.41c1.14,-0.28 2.19,-0.65 3.14,-1.11c0.95,-0.45 1.78,-1 2.49,-1.64c0.72,-0.64 1.24,-1.31 1.6,-2.02l0.58,-2.65l0.59,0l-1.07,7.75l-0.54,0z" fill="#780505" id="svg_42"/>
  <path d="m679.8,90.65c0,-1.07 -0.29,-1.74 -0.84,-2c-0.55,-0.26 -1.24,-0.4 -2.08,-0.4l-1.55,0l0,-0.54l24.98,0l0.4,6.71l-0.54,0l-0.49,-3.65c-0.33,-0.42 -0.84,-0.78 -1.53,-1.08c-0.68,-0.3 -1.51,-0.57 -2.47,-0.79c-0.96,-0.22 -2.04,-0.38 -3.23,-0.48c-1.19,-0.11 -2.44,-0.17 -3.75,-0.17c-1.04,0 -1.88,0.03 -2.53,0.08c-0.66,0.06 -1.19,0.18 -1.57,0.36c-0.38,0.18 -0.65,0.43 -0.8,0.77c-0.14,0.32 -0.21,0.73 -0.21,1.23l0,10.54c0.95,-0.32 1.97,-0.59 3.08,-0.81c1.12,-0.22 2.39,-0.34 3.81,-0.34c2.44,0 4.47,0.27 6.08,0.82c1.6,0.53 2.88,1.24 3.84,2.12c0.95,0.88 1.61,1.89 1.99,3.02c0.38,1.14 0.58,2.32 0.58,3.54c0,1.16 -0.21,2.35 -0.62,3.59c-0.41,1.24 -1.13,2.36 -2.16,3.37c-1.03,1 -2.39,1.83 -4.09,2.48c-1.69,0.66 -3.81,0.98 -6.37,0.98c-0.48,0 -1.02,-0.02 -1.63,-0.06c-0.61,-0.03 -1.22,-0.06 -1.85,-0.09c-0.62,-0.03 -1.22,-0.05 -1.8,-0.06c-0.58,-0.01 -1.1,-0.02 -1.57,-0.02l-7.55,0l0,-0.54l1.55,0c0.95,0 1.67,-0.18 2.16,-0.54c0.5,-0.38 0.76,-0.99 0.76,-1.84l0,-26.2zm19.03,19.1c0,-3.07 -0.8,-5.34 -2.37,-6.81c-1.57,-1.49 -3.87,-2.23 -6.9,-2.23c-0.84,0 -1.8,0.08 -2.89,0.25c-1.08,0.15 -2.11,0.44 -3.08,0.85l0,16.42c0.85,0.47 1.82,0.8 2.91,0.98c1.09,0.17 2.11,0.25 3.06,0.25c1.33,0 2.56,-0.22 3.69,-0.67c1.13,-0.44 2.11,-1.08 2.93,-1.91c0.84,-0.85 1.49,-1.87 1.95,-3.07c0.46,-1.19 0.7,-2.54 0.7,-4.06z" fill="#780505" id="svg_43"/>
  <path d="m791.19,95.08c0,-1.56 -0.34,-2.81 -1.01,-3.75c-0.67,-0.92 -1.47,-1.63 -2.39,-2.12c-0.92,-0.49 -1.87,-0.8 -2.83,-0.96c-0.96,-0.15 -1.73,-0.23 -2.3,-0.23c-0.96,0 -1.97,0.12 -3.06,0.33c-1.08,0.23 -2,0.5 -2.77,0.84l0,12.62l6.37,0c0.21,0 0.55,-0.01 1.03,-0.04c0.47,-0.02 1,-0.1 1.59,-0.23c0.6,-0.13 1.21,-0.34 1.82,-0.62c0.63,-0.29 1.2,-0.69 1.72,-1.19c0.53,-0.5 0.97,-1.13 1.3,-1.88c0.35,-0.76 0.53,-1.68 0.53,-2.77zm1.11,15.21c0,-0.65 -0.12,-1.44 -0.34,-2.35c-0.22,-0.92 -0.69,-1.78 -1.38,-2.61c-0.7,-0.83 -1.71,-1.53 -3.04,-2.1c-1.32,-0.58 -3.09,-0.88 -5.32,-0.88l-5.39,0l0,15.46c0.4,0.28 0.88,0.52 1.42,0.73c0.56,0.2 1.13,0.37 1.7,0.5c0.59,0.13 1.16,0.23 1.72,0.31c0.57,0.08 1.08,0.11 1.53,0.11c0.87,0 1.82,-0.13 2.87,-0.4c1.06,-0.26 2.06,-0.74 2.98,-1.43c0.92,-0.7 1.69,-1.63 2.3,-2.82c0.63,-1.17 0.95,-2.68 0.95,-4.52zm-19.3,-19.64c0,-0.92 -0.29,-1.55 -0.84,-1.88c-0.55,-0.34 -1.24,-0.52 -2.08,-0.52l-1.55,0l0,-0.54l7.44,0c1.26,-0.03 2.58,-0.07 3.96,-0.13c1.39,-0.05 2.73,-0.08 4.03,-0.08c2.08,0 3.82,0.18 5.24,0.54c1.4,0.35 2.54,0.84 3.41,1.46c0.87,0.61 1.49,1.33 1.87,2.17c0.38,0.82 0.58,1.71 0.58,2.66c0,1.95 -0.69,3.62 -2.07,5.02c-1.38,1.41 -3.37,2.33 -5.95,2.78c1.28,0.18 2.49,0.49 3.62,0.93c1.14,0.45 2.14,1.02 3,1.71c0.85,0.7 1.53,1.52 2.03,2.48c0.5,0.96 0.76,2.03 0.76,3.21c0,1.54 -0.29,2.9 -0.86,4.08c-0.56,1.18 -1.36,2.18 -2.39,3c-1.02,0.81 -2.24,1.42 -3.67,1.84c-1.42,0.41 -3,0.62 -4.71,0.62c-1,0 -1.9,-0.02 -2.71,-0.06c-0.79,-0.03 -1.59,-0.06 -2.39,-0.09c-0.77,-0.03 -1.54,-0.05 -2.32,-0.06c-0.77,-0.01 -1.59,-0.02 -2.46,-0.02l-6.41,0l0,-0.54l1.55,0c1.19,0 1.97,-0.17 2.35,-0.5c0.38,-0.33 0.57,-0.96 0.57,-1.88l0,-26.2z" fill="#780505" id="svg_44"/>
  <path d="m828.19,119.77l0.09,-1.69c-0.86,0.5 -1.8,0.91 -2.83,1.21c-1.03,0.29 -2.03,0.51 -3,0.67c-0.96,0.17 -1.86,0.27 -2.68,0.33c-0.81,0.07 -1.44,0.11 -1.87,0.11c-2.74,0 -5.13,-0.41 -7.19,-1.21c-2.05,-0.82 -3.76,-1.95 -5.11,-3.4c-1.36,-1.46 -2.38,-3.19 -3.06,-5.19c-0.67,-2.01 -1.01,-4.19 -1.01,-6.56c0,-1.87 0.27,-3.8 0.8,-5.79c0.53,-2 1.44,-3.83 2.73,-5.5c1.3,-1.67 3.01,-3.04 5.15,-4.12c2.15,-1.09 4.81,-1.63 7.99,-1.63c1.39,0 2.87,0.17 4.42,0.5c1.55,0.32 3.38,0.94 5.49,1.85l-0.04,-1.64l0.52,0l0.59,8.08l-0.55,0l-0.25,-2.04c-0.45,-0.83 -1,-1.62 -1.65,-2.37c-0.66,-0.75 -1.44,-1.41 -2.33,-1.96c-0.9,-0.57 -1.91,-1.02 -3.04,-1.36c-1.12,-0.34 -2.39,-0.52 -3.81,-0.52c-2.09,0 -3.88,0.45 -5.37,1.34c-1.48,0.89 -2.71,2.08 -3.69,3.58c-0.96,1.49 -1.67,3.22 -2.13,5.19c-0.47,1.95 -0.7,4 -0.7,6.12c0,2.78 0.34,5.18 1.01,7.21c0.67,2.02 1.57,3.68 2.7,5c1.13,1.32 2.43,2.3 3.9,2.94c1.48,0.62 3.02,0.93 4.63,0.93c1.19,0 2.35,-0.13 3.5,-0.41c1.14,-0.28 2.19,-0.65 3.15,-1.11c0.94,-0.45 1.78,-1 2.49,-1.64c0.71,-0.64 1.24,-1.31 1.59,-2.02l0.59,-2.65l0.59,0l-1.07,7.75l-0.55,0z" fill="#780505" id="svg_45"/>
  <text fill="#ffffff" font-family="Serif" font-size="28" font-weight="normal" id="svg_46" letter-spacing="0" stroke-width="0" text-anchor="middle" textLength="0" transform="matrix(2.48467 0 0 2.23325 -413.323 -710.307)" word-spacing="0" x="284.47" xml:space="preserve" y="579.93">20</text>
 </g>
</svg>